<?xml version="1.0" encoding="UTF-8"?><svg id="Layer_2" xmlns="http://www.w3.org/2000/svg" viewBox="0 0 232.3669 190.0004"><g id="Components"><g id="e4398948-5253-4b1b-b8b8-11593911e8d9_4"><polygon points="85.8586 178.7104 85.8066 178.8979 86.5927 179.725 85.1394 184.9233 85.1023 184.9379 84.302 184.7143 84.1194 185.3676 89.2282 186.7963 89.2644 186.8071 89.9226 184.9028 89.7636 184.8588 88.4658 185.8627 86.2707 185.2495 86.9651 182.7621 88.4321 183.1723 88.4568 183.2153 88.2375 183.9985 88.8781 184.1772 89.5031 181.9418 89.5139 181.9037 88.8733 181.725 88.6582 182.4936 88.6147 182.518 87.1487 182.1088 87.7492 179.9594 89.9282 180.5688 90.3283 182.0278 90.3344 182.0493 90.5071 182.0971 91.0481 180.1616 85.8972 178.7221 85.8586 178.7104"/><path d="M95.5683,180.9321c-.6577-.1367-1.2908-.0586-1.7825.2139-.4819.2686-.8076.71-.917,1.2432-.2383,1.1592.4866,1.8096,1.3157,2.4277.071.0527.1423.1055.2131.1582.6736.499,1.3098.9697,1.1626,1.6855-.134.6475-.6924.9346-1.4919.7725-.5718-.1182-.8921-.4531-1.2195-.9482l-.4346-1.2246-.0076-.0205-.1472-.0303-.3818,1.8594-.0049.0234.0186.0156c.425.3486,1.1746.7832,2.0027.9531.2485.0508.4854.0762.7087.0762,1.0684,0,1.823-.5713,2.0317-1.585.2454-1.1934-.5259-1.8887-1.2676-2.4473-.0906-.0693-.1814-.1367-.271-.2031-.677-.5059-1.262-.9424-1.1274-1.6006.1206-.584.6121-.8906,1.2224-.7686.5383.1113.8208.4209,1.0762.8447l.4583,1.1738.1611.0322.376-1.8301.0051-.0244-.0198-.0146c-.509-.3916-1.0896-.6621-1.6794-.7822Z"/><polygon points="99.5112 181.9311 99.2453 183.9731 99.24 184.0121 99.4184 184.0366 100.4272 182.7514 102.0915 182.9672 101.3825 188.4077 101.3481 188.4282 100.5625 188.3246 100.5229 188.3198 100.4353 188.9946 103.2758 189.3657 103.3154 189.3705 103.403 188.6957 102.5786 188.5883 102.5498 188.561 103.2597 183.1205 104.9387 183.3393 105.5608 184.8168 105.5696 184.8373 105.7483 184.8618 106.0139 182.8188 106.0193 182.7797 99.5508 181.936 99.5112 181.9311"/><path d="M110.7693,183.0893l-2.9092-.1328-.04-.002-.0088.1934.9531.6299-.248,5.3955-.0332.0225-.8301-.0381-.0322.6797,2.7744.127c.1357.0059.2686.0098.3984.0098,1.1753-.001,2.1128-.2559,2.7905-.7607.7788-.5801,1.2017-1.4795,1.2563-2.6738.0469-1.0264-.2812-1.8486-.9761-2.4463-.7036-.6035-1.7446-.9414-3.0952-1.0039ZM109.9441,183.7475l.6475.0293c2.0103.0928,3.0742,1.0791,2.9961,2.7783-.0435.9512-.3433,1.6631-.8916,2.1162-.5356.4414-1.3101.6465-2.3125.5967l-.6914-.0312.252-5.4893Z"/><path d="M125.7312,187.975l.0571.793-.0298.0264-2.8296.2031,1.251-1.2959c1.2041-1.2432,1.689-2.1777,1.6216-3.123-.0815-1.1279-.9204-1.8252-2.1636-1.8252-.082,0-.166.0029-.2515.0088-.665.0479-1.3647.3096-1.9199.7168l-.0181.0127.1187,1.6387.1621-.0127.4971-.7998c.4229-.6787.6475-.9102,1.1455-.9463.0308-.002.061-.0039.0913-.0039.6445,0,1.0781.5117,1.1392,1.3564.0757,1.0469-.4746,1.9346-1.4507,3.1123l-1.4297,1.7305-.0103.0127.0303.4209,4.792-.3467-.125-1.7275-.6777.0488Z"/><path d="M132.862,182.686c-.5591-.585-1.292-.8145-2.1831-.6924-.8511.1201-1.5049.6025-1.8896,1.3945-.3433.7051-.4561,1.6309-.3184,2.6064.3008,2.1328,1.2803,3.2793,2.7783,3.2793.146,0,.2969-.0107.4521-.0322,1.8784-.2656,2.4624-2.2012,2.208-4.001-.1602-1.1348-.5127-1.9941-1.0474-2.5547ZM131.6213,188.6694c-.0562.0078-.1108.0117-.1646.0117-.876,0-1.519-1.0264-1.7778-2.8584-.2925-2.0762.0508-3.1113,1.0801-3.2568.0591-.0088.1157-.0127.1709-.0127,1.2305,0,1.647,1.9775,1.7715,2.8584.291,2.0645-.0527,3.1006-1.0801,3.2578Z"/><path d="M140.3918,185.6577l-.0391.0078.165.7783-.0259.0303-2.7754.5918,1.0605-1.457c1.0225-1.3984,1.3745-2.3916,1.1768-3.3193-.2515-1.1787-1.2886-1.751-2.6431-1.4668-.6523.1396-1.3101.4951-1.8037.9746l-.0161.0146.3423,1.6074.1597-.0342.3823-.8613c.3247-.7305.5156-.9912,1.0049-1.0957.3389-.0713.6489.0029.8984.2178.2437.209.4189.5391.5073.9541.2192,1.0283-.2041,1.9834-1.0098,3.2842l-1.1777,1.9121-.0083.0127.0879.4131,4.6621-.9941.0391-.0078-.3613-1.6963-.626.1338Z"/><path d="M144.8503,181.8735c-.4634.1299-.8667.3467-1.2002.6445l-.3823-1.9102,2.0859-.5889.9556.7324.0161.0117.1416-.041-.5166-1.8262-.0107-.0391-3.4751.9834-.0361.0098.6924,3.3711.0044.0234.2432.0781.0166-.0117c.4028-.2969.79-.4951,1.1831-.6064.4868-.1357.9253-.1064,1.2715.0908.3359.1904.5825.5352.7124.9951.1411.498.1299.9414-.0322,1.2822-.1499.3164-.4253.5391-.7954.6445-.5576.1602-.9258.0342-1.6436-.5527l-.5137-.417-.0161-.0127-.1572.0439.4521,1.5977.0254.0039c.2632.043.5161.0635.7632.0635.3975,0,.7812-.0547,1.1719-.165,1.457-.4121,2.207-1.6484,1.8237-3.0059-.3491-1.2305-1.4409-1.7822-2.7798-1.3994Z"/><polygon points="67.3601 152.5844 67.3781 152.5746 67.4228 152.3041 63.3305 152.3041 63.2863 152.5688 64.6902 153.3803 61.302 161.3315 60.1062 152.3393 60.1018 152.3041 58.6257 152.3041 59.0566 155.0082 56.3532 161.3373 55.0114 153.4037 56.634 152.5844 56.6521 152.5746 56.6975 152.3041 52.1797 152.3041 52.1355 152.5688 53.5542 153.3891 55.438 163.4008 55.4441 163.433 56.1657 163.433 59.2829 156.5287 60.3723 163.433 61.0952 163.433 65.7236 153.4106 67.3601 152.5844"/><path d="M68.907,156.2133c-2.021,0-3.7285,2.1514-3.7285,4.6982,0,1.6094.9519,2.6914,2.3687,2.6914,2.2302,0,3.7285-2.4375,3.7285-4.7148,0-1.625-.9297-2.6748-2.3687-2.6748ZM69.8869,158.9399c0,2.2266-.9456,3.9707-2.1528,3.9707-.7415,0-1.1499-.7217-1.1499-2.0332,0-2.2275.9456-3.9717,2.1528-3.9717.7415,0,1.1499.7227,1.1499,2.0342Z"/><path d="M76.2854,156.2133c-2.021,0-3.7285,2.1514-3.7285,4.6982,0,1.6094.9519,2.6914,2.3687,2.6914,2.2302,0,3.7285-2.4375,3.7285-4.7148,0-1.625-.9297-2.6748-2.3687-2.6748ZM77.2654,158.9399c0,2.2266-.9456,3.9707-2.1528,3.9707-.7415,0-1.1499-.7217-1.1499-2.0332,0-2.2275.9456-3.9717,2.1528-3.9717.7415,0,1.1499.7227,1.1499,2.0342Z"/><path d="M85.0573,163.603c.6868,0,1.4873-.5,1.9641-.9287l.0205-.0176-.1091-.2842-.0374.0146c-.3179.123-.6113.1494-.8015.1494-.5227,0-.708-.1807-.708-.6904,0-.1963.0227-.417.0676-.6562l1.7676-9.9775.0049-.0273-.1265-.0752-2.3987,1.0625-.0186.0078-.0449.2031,1.0208.4932-.6313,3.625c-.415-.1914-.845-.2881-1.2786-.2881-2.095,0-3.8647,2.2754-3.8647,4.9697,0,1.5381.6465,2.4199,1.7739,2.4199.7944,0,1.6118-.5029,2.4314-1.4951-.0066.1104-.0066.2178-.0066.3164,0,.8262.2917,1.1787.9751,1.1787ZM84.8445,157.6069l-.6589,3.7363c-.0093.0371-.0137.0771-.0181.1162-.0037.0332-.0073.0654-.0134.0938-.6924.6367-1.3665,1.001-1.8506,1.001-.6917,0-1.0137-.501-1.0137-1.5752,0-2.1699,1.093-4.0732,2.3394-4.0732.4429,0,.8628.2422,1.2153.7012Z"/><path d="M91.2715,159.5385c-.126-.1074-.2522-.207-.374-.3018-.1128-.0879-.219-.1719-.3245-.2607-.3804-.3047-.7324-.6553-.7324-1.1582,0-.5371.3889-.9121.9458-.9121.5625,0,.9941.3701,1.4431,1.2363l.2153.4121h.1248l.3865-1.8799-.0266-.0137c-.3213-.167-.9939-.4473-1.8882-.4473-1.3311,0-2.335.8721-2.335,2.0293,0,.6445.2229,1.1055.7954,1.6445l.0176.0166c.1794.1631.3826.3477.6306.5293.8792.668,1.1912,1.0059,1.1912,1.5664,0,.5107-.4751.9111-1.0815.9111-.7173,0-1.1843-.3633-1.5615-1.2158l-.2996-.6875h-.127l-.3804,1.9531-.0051.0273.0234.0146c.6055.376,1.3887.6006,2.0947.6006,1.4087,0,2.4712-.8799,2.4712-2.0459,0-.7432-.3604-1.3477-1.2039-2.0186Z"/><path d="M97.1235,154.2592h-.3252l-1.3308,2.2354-1.093.4697-.0198.0088-.0632.3574h1.02l-.7227,4.1182h-.0002c-.1477.8662-.1848,1.5156.1152,1.8711.1609.1904.4084.2832.7573.2832.772,0,1.7539-.4551,2.627-1.2168l.021-.0186-.1101-.2861-.0386.0176c-.4468.2002-.97.4043-1.4626.4043-.2659,0-.4197-.0479-.5142-.1602-.1633-.1934-.1702-.6211-.0242-1.4766l.623-3.5361h1.8696l.1506-.8447h-1.8704l.3911-2.2266Z"/><path d="M101.615,163.603c2.2305,0,3.7285-2.4375,3.7285-4.7148,0-1.625-.9297-2.6748-2.3687-2.6748-2.021,0-3.7285,2.1514-3.7285,4.6982,0,1.6094.9519,2.6914,2.3687,2.6914ZM100.6521,160.8774c0-2.2275.9456-3.9717,2.1528-3.9717.7417,0,1.1499.7227,1.1499,2.0342,0,2.2266-.9456,3.9707-2.1528,3.9707-.7415,0-1.1499-.7217-1.1499-2.0332Z"/><path d="M111.467,162.352l.0215-.0186-.1108-.2881-.0396.0195c-.3911.1963-1.2676.5059-1.9536.5059-.9014,0-1.2861-.5322-1.2861-1.7783,0-.9033.1909-1.8838.5107-2.623.3525-.8154.8213-1.2637,1.3193-1.2637.3647,0,.6646.3086,1.0347,1.0654l.4419.9014.0112.0225h.127l.3491-2.166-.0195-.0146c-.4365-.3232-.9946-.501-1.5708-.501-2.2295,0-3.6094,2.5713-3.6094,4.9531,0,1.5488.7334,2.4365,2.0117,2.4365.8687,0,1.7725-.4092,2.7627-1.251Z"/><path d="M116.9055,156.5209l.7827.7998-2.5151,1.9951-.0225.0176.6558,1.8125c.6089,1.6699,1.0005,2.457,1.9585,2.457.6318,0,1.1958-.502,1.6484-.9043l.0532-.0479-.1909-.2754-.0298.0117c-.3091.1201-.5239.167-.7671.167-.6675,0-.9609-.5381-1.5605-2.2676l-.4658-1.3486,3.4097-2.4307.0166-.0117v-.1123h-2.9458l-.0273.1377Z"/><polygon points="112.907 163.433 114.1438 163.433 116.2912 151.2123 116.2956 151.185 116.1696 151.1098 113.7707 152.1723 113.7522 152.1801 113.7072 152.3832 114.7287 152.8764 112.9148 163.3862 112.907 163.433"/><path d="M122.6501,162.6791c0-.6533-.354-1.0596-.9243-1.0596-.6338,0-1.0596.6094-1.0596,1.1787,0,.4189.2891.7764.6924.8652-.1001.6777-.6719,1.377-1.4351,1.75l-.0327.0166.1807.4814.0386-.0176c1.6143-.7129,2.54-1.8848,2.54-3.2148Z"/><polygon points="131.5627 163.4008 131.5691 163.433 132.3401 163.433 137.8186 153.4116 139.4563 152.5844 139.4743 152.5746 139.5197 152.3041 135.427 152.3041 135.3825 152.5688 136.7844 153.3793 132.5642 161.3813 132.5368 161.3813 131.1877 153.4037 132.8098 152.5844 132.8279 152.5746 132.8733 152.3041 128.3049 152.3041 128.2605 152.5688 129.6789 153.3891 131.5627 163.4008"/><path d="M142.1653,157.5961c0-.8271-.6309-1.3828-1.5698-1.3828-2.0278,0-3.6777,2.207-3.6777,4.9189,0,1.5928.7144,2.4707,2.0117,2.4707.8872,0,1.8691-.4443,2.7637-1.252l.0205-.0176-.1108-.2871-.0391.0186c-.5181.252-1.3184.5059-1.9375.5059-.9009,0-1.3027-.5586-1.3027-1.8125v-.2754c2.585-.6982,3.8418-1.6426,3.8418-2.8867ZM138.3821,159.7856c.2485-1.8037,1.1509-2.8799,1.8901-2.8799.498,0,.5723.4326.5723.6904,0,1.0137-.8057,1.7305-2.4624,2.1895Z"/><path d="M147.7688,156.2133c-.8032,0-1.6646,1.0107-2.0796,1.5693l.2153-1.4893.0039-.0264-.126-.0752-2.3647,1.0625-.0181.0078-.0454.2041,1.0386.4941-.9473,5.4258-.0078.0469h1.271l.8867-5.0479c.5796-.4053,1.0884-.5781,1.6973-.5781.2134,0,.3296.0156.4985.0654l.0435.0137.2505-1.6064-.0293-.0117c-.0928-.0371-.1841-.0547-.2871-.0547Z"/><path d="M159.6028,162.3871c-.3179.123-.6108.1494-.8013.1494-.52,0-.7417-.2061-.7417-.6904,0-.1748.0225-.3604.0669-.5518l.646-3.0264c.1455-.666.0649-1.2139-.2319-1.582-.2451-.3047-.6357-.4727-1.0991-.4727-.8843,0-1.5986.6055-2.3862,1.5244.0093-.4844-.1138-.8652-.3657-1.1328-.2412-.2559-.5889-.3916-1.0049-.3916-.7349,0-1.4473.4453-2.3652,1.4854l.0425-.2334.1528-1.1729.0034-.0254-.1255-.0752-2.3647,1.0625-.0181.0078-.0454.2041,1.0386.4941-.9473,5.4258-.0078.0469h1.271l.9043-5.1201c.7671-.7256,1.3223-1.0498,1.7988-1.0498.2456,0,.4106.0596.5186.1875.1685.1992.2026.5791.1045,1.1592l-.8325,4.7764-.0078.0469h1.271l.9233-5.1719c.7383-.6475,1.2451-.998,1.7964-.998.252,0,.439.0732.5552.2178.1733.2148.2021.5938.0859,1.1279l-.5781,2.7363c-.0957.4785-.1367.7959-.1367,1.0615,0,.8047.3408,1.1963,1.0425,1.1963.6865,0,1.4873-.5,1.9648-.9287l.0205-.0176-.1094-.2842-.0376.0146Z"/><path d="M164.531,156.2133c-2.021,0-3.7285,2.1514-3.7285,4.6982,0,1.6094.9521,2.6914,2.3687,2.6914,2.2305,0,3.7285-2.4375,3.7285-4.7148,0-1.625-.9297-2.6748-2.3687-2.6748ZM165.511,158.9399c0,2.2266-.9458,3.9707-2.1528,3.9707-.7417,0-1.1499-.7217-1.1499-2.0332,0-2.2275.9458-3.9717,2.1528-3.9717.7417,0,1.1499.7227,1.1499,2.0342Z"/><path d="M175.4299,162.3871c-.3179.123-.6108.1494-.8013.1494-.3008,0-.4946-.0664-.6104-.21-.1528-.1895-.1738-.5273-.0645-1.0322l.646-3.0264c.1504-.6904.0752-1.2471-.2178-1.6104-.2339-.291-.5952-.4443-1.0454-.4443-.813,0-1.6792.5029-2.5762,1.4951l.2021-1.415.0039-.0264-.126-.0752-2.3647,1.0625-.0181.0078-.0454.2041,1.0386.4941-.9473,5.4258-.0078.0469h1.271l.9043-5.1689c.7764-.6641,1.4561-1.001,2.0195-1.001.2461,0,.4175.0635.5229.1943.1602.1982.1763.5645.0503,1.1514l-.5781,2.7363c-.0962.4805-.1372.7979-.1372,1.0615,0,.8047.3413,1.1963,1.043,1.1963.6865,0,1.4873-.5,1.9648-.9287l.0205-.0176-.1094-.2842-.0376.0146Z"/><path d="M179.76,154.2592h-.3257l-1.3311,2.2354-1.0923.4697-.02.0088-.0635.3574h1.02l-.7227,4.1182c-.1479.8652-.1851,1.5146.1147,1.8711.1611.1904.4087.2832.7578.2832.772,0,1.7539-.4551,2.627-1.2168l.021-.0186-.1104-.2861-.0381.0176c-.4468.2002-.9702.4043-1.4629.4043-.2656,0-.4194-.0479-.5142-.1602-.1631-.1934-.1704-.6211-.0239-1.4766l.623-3.5361h1.8696l.1504-.8447h-1.8701l.3911-2.2266Z"/><path d="M62.2595,32.0862c.0652-.0195.9771-.8067,1.0378-.8853.2832-.367.6794-.959.9412-1.3658.3291-.5118,1.4346-2.3445,1.5388-2.8214.1335-.6115-.6467-1.7028-.7412-2.4168-.0894-.674.0896-1.3153.1226-1.9807.3948-.0602.2039.1011.2527.3208.1443.649.1833,1.3795.4504,1.988.2444.5573.8176,1.1676,1.0603,1.7596.4268,1.0403.4497,4.1913,1.3276,5.2087.6875.7966.4634-.6418.5286-1.1076.0784-.5616.4277-1.1599.5818-1.7252.5137-1.8837.98-3.784.6616-5.7316-.2053-1.2543-1.0632-2.241-2.3723-2.3708-.4221-.0419-.6257.1129-.895.1215-.3323.0106-.7214-1.0211-.707-1.3464.0283-.6404.6208-1.8513,1.3503-1.8529.1206-.0002.5793.1128.7405.1547,1.9436.5061,3.2161,2.374,3.7205,4.226.6331,2.3239-.407,4.8463-.9004,7.1158-.6367,2.9274-1.1475,6.2461-1.092,9.2195.0017.0875-.0725.655-.0935.6821-.095.1221-1.436-.8869-2.8801-.7655-.8518.0716-1.2649-.0976-1.9265-.6447-.7632-.6314-1.4688-2.1544-.644-3.2077.4429-.5659,2.2339-.4653,2.4497.2587.0317.1058-.0601.6089-.082.635-.064.0761-1.5298-.2512-1.2551.6878.3352,1.1465,2.1221.7881,2.2808-.4955.1169-.9447-.4983-1.9529-1.7297-2.3581-.4949-.1628-1.948.142-2.2964.5113-.7068.7496-.833,1.7234-.6829,2.7238.1948,1.2981,1.2427,2.0285,1.2639,2.3339.0439.6288-.7144,1.0423-.8499,1.4662-.3293,1.0269.0457,1.8065-.0527,2.767-.0466.4562-.3279.8679-.3823,1.2838-.2358,1.8065.1646,3.6279,1.4736,4.9227.2188.2159,1.3279,1.147,1.5491,1.2709.6724.3768,1.8582.485,2.6125.848.3379.1625,1.3047,1.0523,1.6067.5839.271-.42-.2207-1.5815-.2065-2.1178.0396-1.532-.2246-2.7748-.4006-3.4385-.5227-1.9696-2.2639-3.0609-3.396-3.5251-.2878-.1179-.8352-.0043-1.1953-.343-.3628-.341-.3455-1.5546-.199-1.9954.1309-.3931.5059-.7753.9004-.8953.9253-.2815,1.9619.0057,2.1223.0675.6985.2698,1.7532.9551,2.0784,1.6386.2117.4452.9167,2.9417,1.1523,3.5896,1.311,3.6048,2.7358,6.3741,5.0393,9.444,2.0725,2.7618,4.1443,4.4249,6.7891,6.5408,3.0142,2.4116,5.9968,3.6384,9.1899,4.9838,1.3057.5501,2.6465,1.1201,4.0393,1.7989.897.4374-.0049,2.1906-1.1765,2.578-1.7908.5922-3.5654.0018-5.2288-.676-2.1035-.8577-3.9475-2.1837-5.6709-3.6854-2.1685-1.8892-4.3269-4.4771-6.3062-6.5038-.6033-.6176-2.8955-1.9976-3.6245-2.5354-.1284-.0945-.1528-.2947-.3384-.4307-1.3596-.9968-4.5498-.5632-6.302-1.1321-.9128-.2963-.7759-.3978-1.2502-1.0571-.4758-.6615-.8506-.0729-.6418.6425.125.4286.8772,1.7874,1.1675,2.1642.9004,1.1685,1.5874,1.4329,3.0713,1.2936.7981-.075,1.5715-.4762,2.2852-.7922.2043-.0904.1487-.1414.3381.0838-.5181.59-.8867,1.1019-1.7356,1.2114-.5317.0687-1.385-.1375-1.7947.128-.7124.4622-2.2544,3.2645-1.7935,3.9852.3.4692.8132-.2159,1.0498-.3708,1.1392-.7453,2.8567-.4214,4.1792-.6917,1.3276-.2712,2.0374-.8333,2.2666-2.2195l.072-1.0811c.4041.331,2.0886,1.5908,2.6829,2.3049.481.5779,1.7483,1.8441,2.1926,2.4327.6794.8994,2.627,2.8771,3.0076,3.1447l-1.5935.0725c-1.6753.263-3.4888,1.3599-5.1963.3083-.3181-.1959-.7339-1.053-.769-1.2811-.0793-.5175.0867-1.6223.7002-1.7279.2988-.0514.8718-.0521,1.0303.2533.2668.5129-.1824.3457-.4509.5813-.614.539.2693,1.6652,1.0261,1.282,1.0022-.5072.2834-2.5017-.6106-2.8531-1.8545-.7281-3.0447,1.0677-2.6665,2.7942.375,1.7122,2.1433,2.3192,3.7195,2.4319,1.0535.0754,2.0298-.4449,3.0767-.5201.53-.038,1.3994-.0469,1.9187.0123.4927.0562,1.1936.4521,1.5659.4741.4771.0283.2551-.0543.781.1278.6172.2136.8821.3033,1.314.864l-1.2092.0721c-1.8291.4859-3.2798,1.8112-5.2573,1.9195-.3364.0186-1.6387-.225-1.7371-.1334-.0205.019-.0117.447.0205.5566.0527.1796.7515.9422.9409,1.1098,2.2002,1.9485,4.7395,2.369,7.5554,1.9146,1.8459-.2979,3.2639-1.33,4.3655-2.8003.4695.2456.6377.2052,1.0183.2516,1.1707.1429,1.5249-.1008,2.5769-.2571.8186-.1217.4639.0822.6287.6409.0574.1946.7812,1.3461.7114,1.4028-.0286.0231-.4648.1146-.6311.2034-.5625.2999-.8062.6597-.8823,1.3047-.0649.5512.2295,1.4016.4631,1.9136.4795,1.051,1.1631,1.3481,2.2036,1.7695.8931.3618,3.9946.5038,4.2996.4542.5686-.0927,1.9482-.0688,2.3689-.3226.4248-.256-.2402-.8257-.3689-1.0475-.2144-.3698-.4758-.8949-.6306-1.2918-.5796-1.4843-.3762-3.2369-1.3064-4.5894-.5608-.8156-1.7683-1.2659-2.7363-1.0607-.4307.0916-1.1741.8342-1.314,1.2494-.0769.2291-.0017.4823-.1199.6486-.5745-.7839-1.0518-1.628-.262-2.4404.2046-.2102,1.0359-.8287,1.3064-1.0009,1.0408-.662,2.8052-.4653,3.8809.0546,1.6611.8033,5.5552,4.8608,6.8032,6.3986,1.1689,1.4406,1.7065,3.6443,1.1648,5.9462-.5002,2.1253-2.5552,3.9514-4.4097,5.0361-.9556.5589-1.5957.8835-2.7214.8795-.8989-.0034-1.3293.1642-2.1814.2419-1.9021.174-3.7456.2769-5.6392.5134-8.5056,1.0625-17.321,2.4421-25.1797,5.9674-.9651.4329-3.1707,2.0432-2.9485,2.2424.1313.1176,3.031,0,3.5249,0,.1831,0,2.812-1.3616,3.3079-1.5629.52-.2112,1.054-.4305,1.595-.584,3.1748-.9012,6.9949-1.6796,10.2561-2.3054,7.8948-1.5142,20.5457-2.5227,28.2888-2.4736,4.1892.0265,15.8027.3885,17.0605.5104,2.9976.29,5.9695.52,8.9573.7843,2.2468.1987,4.5188.7132,6.7693.9119,1.5266.135,4.262,1.1006,5.894,1.4214,4.9958.9817,8.9741,2.9133,9.1453,3.0294.5623.3813,3.0215.3856,3.833.4057.3123.0079.6841-.0396.5667-.4442-.1201-.4128-3.5867-2.1066-4.1882-2.3868-5.4358-2.5323-12.6389-3.8198-18.5642-4.8547-5.0945-.8894-10.0125-1.0985-15.1201-1.543-.3982-.0347-.8442.0605-1.2173-.0646-.3992-.1334-1.7583-1.0093-2.1616-1.2988-2.9097-2.0883-4.2729-4.5085-3.3079-8.158.9084-3.4367,4.2168-7.6724,7.4368-9.2256,1.009-.4866,1.531-.4905,2.5947-.4817,2.0544.0171,2.9453.8132,3.3926,1.6212,1.0337,1.8669,1.6079,3.8716.3655,5.7252-.4792.715-2.0476,1.7318-2.9287,1.3643,0,0,.658-.4447.8298-.6434.8755-1.0139.6675-2.4569-.1892-3.5217-.6917-.8599-1.7241-1.4109-2.5295-2.1501-.1606-.1477-.0837-.4843-.5935-.3323-.0955.0286-1.21,1.2634-1.3638,1.4569-.6182.7782-1.6313,2.6306-1.8044,3.5894-.1504.8329.2886,1.4288.4639,1.7247.4397.7415,2.1475,1.0152,2.9399.8992.303-.0444.5903-.3384.793-.3616.1743-.0199,1.1289.4735,1.5276.4926.2771.0131,1.0825-.0827,1.3691-.1597,1.342-.3609,2.2649-1.0802,3.1721-2.0817.9646-1.0643,1.3669-3.7,1.3887-3.8758.1016-.8248-.1917-2.8941-.3958-3.7835-.2449-1.0682-.8459-1.8987-.5854-3.0837.1323-.6006,1.2686-1.0873,1.5078-1.1837,1.3787-.5559,3.8406-.1681,4.436.3195.0549.045.4231.5659.4314.6019.0657.2879-.8022.6626-.9802.8502-1.4543,1.531-.0156,4.9641-.8647,7.0177-.1589.3846-.835,1.2318-.8411,1.6008-.0022.1149.0344.1955.1284.2576.1963.1292,1.2783-.1305,1.5742-.2279,1.0254-.3378,1.8896-1.5419,2.01-2.603.1096-.9642-.3967-2.11-.4954-3.0769-.0229-.2238-.0613-1.5338-.0083-1.5931.082-.0924.2988.0602.3604.2159.1824.4617.2019,1.1975.3391,1.7115.1497.5601.5178,1.6312.9089,2.0389.3223.3366,2.1294,1.3611,2.5557,1.3661.9038.0102.8879-1.4189.8386-2.0684-.1423-1.8672-1.2988-2.9044-2.5708-4.0942-.5227-.4889-.2151-.5548.3506-.3507.8264.2984,1.5012,1.017,2.0144,1.7028.1924.2573.8855,1.4617,1.0503,1.5126.9607.2961,3.2397-.9832,3.895-1.7138.5415-.6038.8303-1.6597-.3018-1.3264-.1472.0432-.2622.2567-.4229.3457-.7095.3932-1.5339.4601-2.1604-.1092l-1.8586-1.7941c.3494-.029.7373-.1547,1.0608-.2856,1.7019-.6887,3.741-3.0355,4.8357-4.5208,1.1338-1.5375,1.3594-2.3307,3.0811-3.4557,1.1709-.7653,3.4407-1.2256,4.1621.3142.3059.6531.1213,1.9086-.5308,2.2915-.134.0789-1.0369.4412-1.0627.3901-.2058-.4085-1.5454-.8842-2.1946-.6992-1.3176.3756-1.6392,2.6173-2.1484,3.7468-.3564.7902-1.2983,1.7991.167,1.843,1.7515.0525,6.4587-.6683,6.0859-3.274-.0503-.3518-.4971-.8491-.498-.9007-.001-.0667.521-.5007.6294-.6407.6748-.8727.731-1.6044.646-2.6968-.0718-.9232-.4626-1.2052-1.0308-1.8524,1.3181-.1241,2.4644-.2092,3.4409.7079.3154.2961.4109,1.085.8767,1.1894,1.2854.2884,1.4656-.8096.8115-1.7075-1.364-1.8722-4.4395-1.6345-6.4395-1.1803-.5999.1362-1.158.3908-1.7661.4766.3938-.4524.8225-.9603,1.2786-1.3486.8738-.744,2.4397-1.4221,3.5-2.0113.2627-.1461.6123-.186.9062-.3756,1.2485-.8052,1.2175-2.5539,1.1128-3.8937-.0371-.4719-.3743-2.4426-.5439-2.7881-.4661-.9497-.866.4581-1.0576.8101-.8813,1.6176-2.5825,2.1613-2.7634,4.4133-.0537.6693.2563,1.0369.2625,1.4185.0039.2659-.9438.7465-1.2212.956-3.2729,2.4752-4.9321,5.2672-7.5588,8.2062-.6714.751-2.5254,2.5054-3.3674,2.9131-1.7993.8718-4.4463.9617-6.3574.3958-.2271-.0673-1.4624-.4709-1.4946-.4932-.2124-.1461.0391-.2263.1658-.2809.8013-.3455,4.1189-2.2894,5.178-2.8986,1.0334-.5947,2.0435-1.2059,3.0791-1.7915,1.7417-.9844,3.9478-2.7034,5.3623-4.1225.8157-.8183,1.9219-2.2596,2.5625-3.2051.7727-1.14,1.4565-2.7523,1.9497-4.0742.8135-2.1801.8462-4.3481,2.1062-6.353.3811-.6064.8796-.9753,1.2529-1.567.8008-.1917.7402.7399,1.7131.8627.7566.0954,1.5664.239,1.8538,1.0945.1423.4234.0452,1.5359.8035,1.2629.781-.2814.887-1.9796.7393-2.6773-.0349-.1644-.3911-1.045-.4849-1.1816-.4277-.6232-1.3608-1.029-2.1113-.9483-.9119.0981-2.6763.6778-3.4949,1.1187-.1863.1002-1.0789.8036-1.1909.6674-.019-.0231-.0906-1.2798-.1248-1.6062-.187-1.7795-.8196-3.6243-1.385-5.2799-.8572-2.5088-1.48-5.6333-1.1741-8.2934.0623-.5419.4844-1.1776.8833-1.5516.251-.2354,1.1809-.6414,1.5093-.6792.6045-.0698,2.0947.5745,2.4512,1.0876.7173,1.033.4683,1.5546-.5037,2.1504-.4785.2936-.8003.277-1.2026.8484-.6548.9297-.6335,2.7659-.2036,3.7811.2319.548,1.4158,2.8071,1.4158,3.1984v2.1787c0,.0788.2158.1987.3228.1973.5122-.0068.4951-1.0083.6372-1.4161.2544-.7299.7893-1.4999,1.1157-2.2165.126-.2757.5254-1.5804.6812-1.6268.1951-.058.2588.1765.3467.2929.4585.6053,1.0342,1.2777,1.4387,1.8939.4163.6346,1.3757,3.2666,2.125,1.8505.0989-.6436-.2893-.6957-.448-1.0924-.3042-.7617.3389-3.4245.4263-4.4238.126-1.4456-.1746-2.0894-.9902-3.2172-.0845-.1165-.8623-.918-1.3042-1.1287-.5806-.2767-1.0198-.1353-1.5886-.2057-1.051-.1305-.7439-.7712-1.1643-1.3992-.1113-.1665-1.4578-1.6202-1.6035-1.7288-.5728-.4252-1.4746-.2712-1.5332-.326-.1941-.1817.2698-1.0901.4077-1.3231.8811-1.4896,2.4265-2.1721,4.1465-2.0126.532.0491,1.1174.1876,1.3416.7089l-.7068-.1878c-.8203.1155-1.0022,1.1622-.8071,1.83.0442.1511.6758,1.162.8159,1.3629.1941.2787,1.2,1.5573,1.3965,1.6794.2334.1448.5591.3666.6538.3833.8386.1479.512-.7831.5801-1.343.1379-1.1325.7205-2.2362.6357-3.3447-.0396-.5161-.186-1.009-.5164-1.4059-.8877-1.067-1.167.0764-1.6018.0714-.1982-.0023-.8496-.5915-1.218-.5206,1.325-1.0096,2.325-1.9355,2.5881-4.1404.2163-1.8146-.1724-4.4265-1.2471-5.851-.6682-.8858-1.3174-1.0614-2.4272-.899-.3071.0451-.5378.302-.7961.3575-.5283.1135-1.1208-.1792-1.2983.6246-.1941.8776-.0479,1.6227.8682,1.9057.5596.1726,1.3667-.3928,1.52-.9282.1265-.4415-.2151-.6967.6001-.5528.9023.1595,1.4224,1.6185,1.5745,2.3987.2,1.0247.2197,1.8436-.031,2.861-.3616,1.4676-.802,2.5833-2.1799,3.3316-1.3994.7598-3.5854,1.4769-4.6865,2.6193-.1753.1817-1.052,1.5125-1.1787,1.7691-.1089.2202-.0701.4515-.2207.6765-.1797.2687-1.0117.8661-1.292,1.1434-.8477.8383-1.062,1.6566-1.1543,2.8189-.0283.3566.0278.7345.0034,1.0933-.5083-.5145-.9436-1.3758-1.2188-2.0491-.5059-1.2365-.6423-1.9037-.9819-3.046-.0388-.1303-.072-.6672-.1067-.8638-.0813-.4608.1377-2.4732.5928-2.6121.6294-.1921,1.1191.3874,1.6829.4758.8906.14,2.4084-.5224,3.1538-1.0236,1.5488-1.0412,2.7061-3.4403,4.3174-4.3981.3711-.2205,1.3835-.2945,1.531-.778.1375-.4513-.9751-.4282-1.1887-.4705-1.1829-.2345-1.968-.2084-3.1987.0584-.3037.0659-.9136.2275-1.1633.3749-.2205.1298-.6902,1.074-.8015,1.2297-.4158.5809-1.3765,2.072-1.8713,2.4091-.1741.1185-.9146.3041-1.1309.3113.1458-.2558.425-.3444.6421-.575.6572-.6989,1.9888-3.3315,2.1501-4.2581.1902-1.0927.269-2.9091.2244-4.0791-.0139-.3733.4863-1.3391.0593-1.5968-.3892-.2349-.9519.7375-1.0537.8123-1.0671,1.0702-1.5298,1.4587-2.6599,2.4624-.4651.413-1.0986,1.79-1.2207,2.1087-.2268.5933-.4314,1.6214-.4583,2.2437-.0215.4921.3892,1.1452.0737,1.6005-.219-.2111-.3596-.5704-.4219-.8597-.0557-.2603-.1443-.8583-.1619-1.125-.0579-.8724.3953-2.2009.3572-3.0545-.0811-1.8375-1.7439-3.8107-3.5447-4.1192-.5725-.098-1.2312-.862-1.5222-.4709-.3589.4827.6289,1.6185.8398,2.1634.6802,1.7557.0791,3.1637.2935,4.8331.0605.4709.4709,1.6868.7622,2.0574.1953.249,1.0371,1.2447,1.2827,1.5372.3313.3942,1.0366.7297,1.1323,1.1778.0918.4304-.3232,1.4544-.3672,2.0222-.1504,1.9433,1.0999,4.9654,1.1848,5.3599.1091.5081.4963.9589.4851,1.5009-.1689-.068-.3269-.2465-.4517-.3809-.4102-.441-.9602-.8708-1.4756-1.2163-.3281-.2198-2.115-1.034-3.6506-2.0976-1.3755-.9529-2.5193-2.1647-2.7183-2.364-.0757-.0754-.6382-.8996-.7041-1.0262-.3281-.6305-.6838-2.322-.2456-2.9411.2493-.352.9185-.5885,1.2993-.2267.2302.2188-.3132.8208-.3611.9841-.2334.7997.3511,1.9446,1.0073,2.4064.3152.2218,2.5488,1.253,2.9062,1.3235.4814.0947.7583.0552.4866-.4864-.1111-.2211-.7161-.821-.811-1.1115-.2886-.8826-.0361-2.5817-.7256-3.2477-.6343-.6129-1.0991-.2522-1.7742-.4047-.3564-.0806-.7454-.5736-1.1838-.6198-1.0876-.1146-2.1001,1.3928-2.0964,2.3735.0005.212.2842,1.1699.2441,1.2172-.0344.0408-.79-.4739-.8997-.5736-1.2185-1.1087-2.1646-2.811-2.7175-4.3318-.0427-.1171-.2715-.3126-.2278-.3486.1829-.1493.811-.0956,1.0632-.1552.6787-.1602,1.4583-.4963,1.8867-1.0613.6296-.8307.5083-1.7236.7971-2.6631.0042-.3719.7952-1.3468.7332-1.5582-.1497-.509-1.0479-.1092-1.3643.0299-.2437.1069-1.7371.8849-1.8372.9827-.1995.1956-.0896.4015-.136.6332-.1797.9012-.3052,1.8481-1.1421,2.3817.0881-.5036.29-.9714.3757-1.4818.1831-1.0888.0911-1.9769-.3123-3.004-.2312-.5881-.6504-1.1255-.8052-1.7582-.0811-.2895-.4312-.4055-.6748-.234-.0339.0238-.4761.6262-.4878.6658-.0608.2118.0024.4778-.0461.7227-.1553.7857-.7908,1.7469-.8679,2.6019-.0688.7623.6787,1.4406.7983,2.1388.0203.1191.1533.2784-.0964.3486-.21.0589-.5955-.5541-.6838-.7249-.2446-.473-.6902-2.0564-1.0488-2.2838-.1392-.0881-.6704-.2558-.8567-.297-.8892-.1964-1.3191-.0721-2.1611.0933-.3003.0589-.707-.1003-.8933.2632-.2913.5688.7842,1.3366,1.0942,1.7318.8628,1.0983,1.2939,2.3218,2.7881,2.723.7273.1953,1.2632.1847,1.9907.0052.4438-.1092.3845-.4341.7583.1942.4849.8156.8369,1.7972,1.2563,2.6522-.8623-.2331-2.1499-.281-3.0288-.3331-1.0972-.0648-2.2212.0368-3.2878-.2072-1.822-.4164-3.8899-2.4549-4.2957-4.2917-.2402-1.0876-.0698-3.0115.6846-3.8767.1604-.1841.395-.1316.4453-.451.0552-.3531-.02-.7324-.2563-1.002-.0867-.0988-.6052-.4811-.7073-.4827-.1914-.0027-.2136.0938-.3044.2163-.7229.9749-.9509,2.7032-.9143,3.8923-.4636-.1738-.5288-.7413-.8291-1.0287-.3298-.3158-1.2651-.8899-1.6926-1.1273-2.0115-1.1178-3.7004-1.4614-5.9937-1.1681-1.1731.1502-2.0979.9984-3.3167.7365-.3625-.0777-.8503-.5226-1.2078-.5949-.7441-.1504-2.356.5034-3.0237.8983-1.4395.8516-2.5376,2.7888-4.0222,3.54-.3926.1989-2.2908.4123-1.2388,1.0344,1.011.5978,3.8005.5358,4.8376.0007.1287-.0664.2268-.0956.3555-.1819.0986-.0666.2571-.1567.3364-.2156.0798-.0594.405-.6441.5415-.8043.4421-.5179,1.1565-1.4109,1.6716-1.7891.4209-.3088,1.0659-.3571.4033.2335-1.8132,1.6176-2.6094,3.92-2.7231,6.4182-.0288.629-.6191,2.3812-.1816,2.5122.9475.2834,1.5527-1.2839,2.3042-1.9277.3574-.3065,1.1372-.8562,1.4434-1.0552.3076-.2003,1.0627-1.9542,1.125-2.1439.2983-.9061.27-1.8359.3159-2.7618.0122-.2492.0803-.5142.2559-.1912.1384.7487.1929,1.6103.1326,2.3755-.0574.7247-.4131,1.5965-.3967,2.3054.0291,1.2786.8247,2.6107,1.6714,3.4555.1665.1663,1.9248,1.1425,2.2461,1.0942,1.1284-.1688-.2412-1.2198-.3743-1.6757-.1821-.6232-.1531-2.2311-.0681-2.8704.04-.3004.219-.5582.2542-.8994.0815-.7911-.1394-2.4734-.5847-3.1395-.156-.2335-.8826-1.2707-1.0801-1.4834-.1113-.1198-.5168-.2945-.5154-.3784.0007-.0552.4016-.7536.6338-.9025.344-.2208,1.4072-.3031,1.6033-.3195,1.8823-.1586,4.4675.6718,5.6355,2.1902.2712.3525.6521.9252.8647,1.314.2751.5025.551,1.5287.8103,1.8813.2163.2933,1.5757,2.1798,1.7534,2.4118.0386.0503.7961.558,1.0046.7202.3982.3102,1.0488.553,1.0242,1.1552-.0195.481-.896,1.2569-1.0974,1.4753-.4724.512-1.4402.8158-2.1165.5901-.3613-.1207-1.1338-.8165-1.27-1.166-.0981-.2517.1592-.1309.2563-.2687.6506-.9221-.02-1.9515-.7817-2.5374-.3611-.278-.9399-.4614-1.2139-.7086-.2302-.2079-.6428-1.0879-.718-1.14-.061-.0426-.5894-.0383-.6169-.0123-.1475.1389-.002.6176-.0002.8206.0129,1.7693-.2463,3.2766,1.7229,4.0452.0422.3221.574.7299.5791.9592.0024.1196-2.0803-.0059-2.5354,1.8237-.3276,1.3157-.1177,2.3538,1.2185,2.825.4133.1459,1.4036.3613,1.6406-.0954.3379-.6508-.6741-.6064-1.0127-.7891-.5566-.2999-.8232-.8579-.7266-1.461.2698-1.6808,2.9966-1.1506,4.5613-1.2075.2493-.0091.615-.1661.7522-.1301.1104.029.4937,1.0655.4551,1.2039-.0525.186-.541.2548-.761.398-.1272.0827-.4231.3804-.5183.507-.5667.7551-.5454,1.5247-.3508,2.4048.0798.3602.783,1.2145.8369,1.4923.2585,1.3378-.8533,2.2161-.4846,2.5773.2119.2075,1.4651-.3414,1.7153-.5285.1292-.0963.6006-.6783.7012-.8369.4141-.652.416-1.4504.6521-2.1676l.137-2.2347s.6221,1.114.6313,1.8658c.0051.4054-.2251,1.5441-.1062,1.7095.0212.0294,1.4856.7178,1.6462.8182.2429.152.6875,1.3127,1.2874.9898.2776-.1495.158-.9883,0-1.2613-.7856-1.3599-.4568-2.6899-.5088-3.0353-.1335-.8822.1831-1.4121-.3613-2.3305-.2227-.3759-1.1018-1.2519-1.5203-1.2994-.4653-.0528-1.2012,1.0366-1.5615.5978-.0425-.0519-.467-.7651-.3801-1.2957.1633-.9958,1.2957-2.2636,2.2126-2.6603,1.1799-.5104,3.8594-.2692,5.0688.1978,1.0457.4039,1.4963.7716,2.2505,1.4667,1.5623,1.4401,3.2056,3.1816,4.9373,4.4192,1.5833,1.1316,6.8315,4.1157,7.1667,5.5212.0359.1497-.8081.2982-1.0232.3846-1.2346.4946-2.115,1.514-3.2407,2.0142-.2041.0909-1.157.6-1.3284.6388-1.1519.2605-2.4622-1.2695-1.519-2.2037.1782-.176.4214-.1121.6367-.389.4639-.5963.4009-1.3541.0933-2.0095-.9075-1.9336-2.8564-1.9744-4.4724-2.8332-.9705-.5161-1.9775-1.6832-2.863-2.1359-.083-.0426-.9119-.2959-.9619-.2922-.083.0063-.2678.2147-.2966.309-.197.6434.8396,2.5301.9783,3.3393.0791.4608-.0188.9361.0232,1.3867.0515.553.4319,2.4644.7678,2.8234.1108.1185.4692.4698.6514.6275.6301.5469,1.8066.8262,2.6191.7073.3059-.0446.5327-.2965.7961-.357.7581-.1738.575.0041.8284.4037.2502.3944.7375,1.1241,1.1279,1.309.8589.4067,1.6233.3849,2.3662.0135.4539-.2271,1.1467-.972.9622.1082-.1172.6849.0718,1.3153.3301,1.9877.25.6511.7419,1.0607,1.3848,1.3068.7244.277,1.509.4712,2.2351.1312,1.2402-.5809,1.1096-2.9734-.1323-2.7027-.1855.0405-.6819.405-.7161.5768-.0955.4821.5667.4295.6233.6307.1089.389-.3567.7748-.7244.795-.8967.0491-2.0276-1.4911-1.9697-2.3427.0776-1.1423.5708-1.6869,1.6021-2.1189,1.6306-.6833,2.4705.2916,3.3289,1.5534,1.3379,1.9664,2.1516,5.2335,2.1516,7.8216,0,3.3817-.7219,7.8423-2.719,10.4321-.1082.1403-.5049.8326-.5757.8303-.355-.0116-.8381-1.1064-.9871-1.446-.1895-.4321-.635-1.517-.614-1.937.0154-.3054.2419-1.1277.3989-1.4037.0908-.1595.5181-.8051.6196-.9186.1934-.2168.5664-.3137.739-.4786.9182-.8779,1.2087-2.7612.7-3.8982-.0796-.1783-.6584-1.2344-.7307-1.3201-.9504-1.1266-3.4456-1.7703-4.8406-1.3829-.5945.1652-1.0522.3303-.8418,1.0419.073.2481.6069.4286.8083.7288.5491.8181.2373,2.2943.3337,3.2548.1292,1.2866.7021,2.4859,2.1704,2.3801-.145.7698-.5034,1.5797-.3818,2.3681.0591.3821.3962.6214.2378,1.1404-.1699.5569-.998.1278-1.3379.0884-.5234-.0607-1.175.0471-1.6646.2413-.2456.0974-.5391.3987-.7646.394-.1829-.0038-.4863-.3342-.7896-.358-.3726-.0294-.7854.3323-.998.616-.1042.1389-.5957.9046-.6433,1.0229-.5046,1.2542.9683,1.8146,1.9915,1.4789.9358-.3072.6663-1.8932,1.7405-2.4893.5198-.2885,1.7371-.0324,2.1663.3624.8538.7859.449,2.7141-.1968,3.5292-1.3008,1.6415-4.0486,2.5369-5.9314,3.2974-3.4724,1.403-6.9971,2.8835-10.5125,4.0994-2.4775.8568-4.9033,1.6299-7.2058,2.9202,0,0,.3342-1.8604.3191-2.4871-.0352-1.4539-.7878-2.5167-2.366-2.6429-.7971-.0637-1.5564.0422-2.2415.4574-.2417.1466-.2651.4792-.5869.1919-.2046-.1826-.1738-.4708-.5049-.5199-1.1843-.1756-1.7344.4365-2.1423,1.4521-.301.7494-.1887,1.0722-.2283,1.8226-.033.6307.0105.9719.0076,1.5339-.0012.2553-.1321.4696-.1316.6439.0015.55.439.5399.897.389.0667-.022,1.241-.8906,1.3591-.9753,1.0107-.7234,3.5005-.9579,2.2805-2.679-.1182-.1662-.5706-.582-.5706-.582.4426-.3047,1.2029-.7578,1.7229-.7007,1.8333.2005,1.5801,2.6773.7119,3.7761-.9358,1.1841-1.554,1.3898-2.6863,2.1839-.3684.2585-.7769.7397-1.1672,1.012-1.4487,1.0111-2.9556,1.7573-4.2854,2.8921-.9851.8403-2.3313,2.1075-3.2083,3.0722-.304.3348-1.0452,1.4957-1.4072,1.546-.8218.1144-3.7305-2.6979-4.8926-3.5706-1.3174-.9893-4.5215-2.574-4.5078-4.0898.0083-.9205.9226-3.1932,2.071-3.7747.5742-.2908,1.8167-.5546,2.4714-.6151.1953-.0181,1.1262.1253,1.3396.1846.7219.2005,1.4822,1.2406,1.532,1.9922,0,0-.6768-.5389-.9321-.6699-1.7031-.8742-3.8569.4683-2.6829,2.5546.8101,1.4395,2.98,2.2344,4.3743,3.0598.4717.2789,1.0278.9745,1.5938.8051l2.0608-2.4258c.5872-.727.5833-2.3339.4297-3.2319-.0842-.4927-.8191-1.7288-1.2522-1.9517-.6436-.3312-1.4595.5815-1.9683.4349-.209-.06-.8047-.9531-1.1069-1.2054-.4175-.3484-1.7805-1.0813-2.3086-1.2802-1.4189-.5342-3.304-.4592-4.7446.0013-.2974.095-1.853.9135-1.9221.8337-.0227-.0263-.0737-.4812-.1594-.6747-.3301-.7458-1.6162-1.675-2.4456-1.4814-.2542.0594-.7102.2062-.9902.2916-.3269.0999-1.5105.6742-1.5972.674-.2664-.0007-.7671-.2811-1.4128-.2227-.7378.0663-1.2361.6024-1.9836.196-.2939-.1602-.2739-.8471-1.0208-.3806-.4707.2938-.0698.8457.1968,1.2043.7419.9988,2.7478,2.441,3.9492,1.5312.4202-.3185.5425-1.0358.7471-1.2397.0574-.0575.9277-.4481,1.0918-.5101,2.1201-.8043,2.7686.5037,2.0422,2.3311-.2922.7354-1.2649,2.1473-3.3562,1.8727-.7239-.0951-2.3589-.5156-3.0417-.8033-.9226-.389-12.3979-4.7624-16.155-7.3034-3.2219-2.1791-5.4155-6.4557-5.6934-6.8918-.7686-1.2056-3.8218-6.6605-3.7456-12.2369.0229-1.7064.6467-2.8511,1.2827-3.197.2957-.1608,1.5613-.6689,1.8516-.712.2798-.0416,1.2681-.0496,1.5117.0209.0862.0249.748.4708.8501.5598.6147.5369.5723,1.3942.3315,2.1123-.3347.997-.6638.5401-1.354.8257-.7134.2952-1.1577,1.4569-1.1602,2.1814-.0007.2558.1948,1.0109.2935,1.2551.3591.8867,1.2085,1.7988,1.4536,2.9041.1018.4597-.0278,1.6932.1924,1.9227.0452.0467.4065.0165.512-.0523.198-.1298.4053-1.2607.6541-1.6524.5764-.9064,1.4802-1.8521,2.0579-2.8128.7219-1.2005.9128-2.3481.4236-3.6796-.2397-.6529-.7598-1.2571-1.4697-.8262-.1396.0847-.4897.5884-.6462.4423-.0361-.034.2378-.7112.26-.9574.1245-1.3833-.1904-2.0693-1.1575-3.0145.8728-.1948,1.1521-1.1998,1.6631-1.7346.1006-.1053.8694-.6735.9656-.7007.0718-.0204.0933.213.1863.3213.7581.8828,1.6023,1.0836,2.6138.4279,2.3516-1.5249,1.6902-4.6295,1.874-6.9697.0376-.4799.5027-1.5383.0066-1.7929-.5059-.2598-1.2192.6044-1.6787.8903-1.592.9907-3.8853.7277-5.0486,2.2571-.1709.2245-.7639,1.2567-.8142,1.4932-.0845.3974-.0752,1.1456.1216,1.4966.0532.0952.447.6013.53.6876.1062.1104.5581.2719.5723.4789.0305.441-.8245,1.5652-1.1836,1.8629-1.6265,1.347-3.6418.797-5.3191,1.9222l.804-4.002c.5139-1.316.8401-2.8903,1.5254-4.1141,1.5564-2.779,5.0964-4.9946,7.9641-6.2631,1.8904-.8364,4.1355-1.6146,6.1812-1.0045.3618.1078,2.249.9875,2.3667,1.2222.1226.2447-.1895.1763-.2886.2193-1.0137.4413-1.6392.6692-1.7656,1.9548-.1392,1.4173.1223,1.9238-.4446,3.4003-.1174.3056-.5935.8439-.3215,1.0894.4385.3956.6377.0458.9897-.0369.3445-.0804.7173-.0915,1.063-.2184.4253-.1561,1.6621-.9399,1.666-1.4068.0024-.3536-.4678-1.2438-.5161-1.7945-.0222-.2537.0488-1.596.3235-1.6049l.5078,2.1823c.3489.7479.7354,1.7878,1.6038,1.857,1.426.1136,1.8638.8281,2.3101.4449.2314-.1989-.0156-.9991-.0037-1.2211.0164-.3036.2102-.5378.1116-.8698-.1038-.3493-1.0212-1.4318-1.322-1.7571-.2729-.2952-.6033-.6218-.9001-.8942-.0938-.0865-.7839-.449-.5769-.6402.0842-.0775,1.1506.4132,1.3267.5314.3945.2646.9919,1.0143,1.3638,1.1996.189.0942.9851.2119,1.22.1978.5139-.0306,1.2166-1.0917,1.5708-1.455.2471-.2528.9756-.5474.7437-.8673-.2795-.3853-1.1311-.087-1.5493-.1155-1.7087-.1171-2.5935-1.6852-4.3276-1.3862-.3726.0644-1.4226.7073-1.5046.6878-.6238-.147-1.1948-.9196-1.6682-1.2872-.27-.2095-1.0933-.4214-.7058-.9719.1301-.1849,1.1128-.6513,1.3906-.788,2.2078-1.0865,3.8645-1.8803,6.4373-1.6445.2671.0245,1.5869.3521,1.5918.5789.001.055-.3672.7073-.3682,1.028-.0029.9218,1.2202,1.6316,2.0061,1.8282,2.9065.7272,4.3606-1.3724,6.509-2.7906.252-.2884.5942-.5424.8328-.8335.1138-.1384.1897-.1019.0022-.2587-.8145-.2483-1.7402-.3937-2.5376-.6665-1.2676-.4336-1.4885-.8212-3.0439-.6804-1.1377.1033-1.3306.6067-2.1162,1.0875-.6982.4275-1.8354-.3444-2.6311-.435l-1.594-.072c.3901-.2936.8459-.5138,1.218-.8328.3999-.343.6262-.7775.9556-1.0952.2358-.2277.5967-.3577.8386-.5714,1.1504-1.0165,2.3518-2.3943,3.8208-2.9723.582-.229,1.9741-.4499,2.585-.357.3845.0587.98.6676,1.144.6329.3643-.0768.6008-1.3894.4053-1.6694-.0532-.0759-.7866-.3255-.9324-.3495-.7434-.1228-2.0969.0843-2.8289.3215-1.3108.4243-2.5996,1.3713-3.5537,2.3418-.052-.1241.0586-.2682.0698-.4424.0593-.9041-.0762-1.6638-.4912-2.4666-.3369-.6522-.7446-.8971-1.4348-1.1287-.8301-.2784-2.0686-.3079-2.8596.0917-.4106.2075-1.0923,1.1767-1.3525,1.5956-.3015.4853-.1287.3704-.5999.8099-.4932.4601-.6301,1.6689-.3464,2.2763.7593,1.6248,3.4199.536,4.03-.7716.2161-.4635-.0254-.6654-.5066-.7107-.2346-.022-.3948.1207-.603.1092-.6104-.0338-.4268-.3181-.5188-.6418-.0981-.3455-.5366-.5048-.5544-.5306-.126-.1842.0603-.664.2349-.8146.0627-.0542.855-.5743.9299-.6085.9531-.4373,2.6042.3616,2.7812,1.3799.2109,1.215-.0718,2.7636-.8931,3.7124-.4084.4717-1.7566,1.5015-2.3152,1.9143-1.7488,1.2918-4.2854,2.4349-6.3091,3.176l-3.5525,1.2535c.3904-.6176.6931-1.3013.8684-2.0172.0312-.1292.0161-.4014.0288-.418.062-.0786.4543.1103.584.1216,1.1943.1044,1.811-.2943,2.3879-1.3149.7161-1.2662.4128-1.5428.24-2.8508-.1885-1.425-.3354-3.1984-.677-4.5778-.0789-.3183-.303-1.0764-.7429-.9359-.5605.179-.417.7988-.5679,1.2343-.3118.8998-2.6548,2.7582-3.4036,3.6458-.7864.9318-1.8542,3.1161-1.0093,4.214.437.5675,1.3296.4207,1.3848.473.1445.1366.0356,1.082-.0139,1.3135-.0649.3036-.5637.7891-.8289.9658-.8105.5399-1.8564.9513-2.6912,1.4103-.9363.5151-1.8728,1.0079-2.7827,1.5754-.2075.1296-1.3181,1.0555-1.4927.8779-.0461-.0469-.0039-1.9272-.1572-2.4702-.1741-.6183-1.1375-1.8804-.7439-2.4474.0813-.1174.0757-.4119.1318-.4644.0242-.0226.4172.0151.5686-.0086,1.3655-.2134,2.3228-.9221,3.0801-2.0471.4414-.6556.3352-.7741.4766-1.4459.0454-.2156.2566-.4458.3323-.6932.3059-1.0002.427-2.5652.8254-3.5318.1929-.4676,1.7197-1.3407.7878-1.8679-.4246-.2401-.6497-.1284-1.0735.0439-.6528.2656-2.1738,1.3174-2.6292,1.857-.1646.1953-.783,1.0634-.8132,1.2469-.0469.283.0369.7802-.0488,1.2238-.2712,1.4075-1.0085,2.2428-2.0183,3.1716-.1475-.4674.1729-.647.283-.9341.6008-1.5659.979-3.257.125-4.793-.3972-.7147-1.1675-1.3373-1.4885-1.9723-.2808-.5552-.1072-1.2188-.8867-.9952-.3279.0941-.5002,1.0251-.6614,1.3887-.167.3768-.6714,1.1542-.7073,1.4814-.0398.3618.0769.813.1609,1.3729.0288.5115,1.135,3.6721.9951,3.8105-.0261.026-.3262.0448-.3884-.08-.6174-1.238-1.1841-2.4249-1.6052-3.7573-.082-.2596-.0203-.5154-.123-.7743-.6765-1.7028-3.5105-2.8636-5.2573-2.6975-.4158.1592-1.967-.0099-1.4116.7789.1311.186,1.2678.7642,1.6111,1.0804.4099.3777,1.2463,1.3495,1.512,1.8206.4707.835.4653,1.787.8218,2.6385.5203,1.2424,2.2703,3.3146,3.6765,3.4906.176.022.3105-.1148.5227-.0068.0728.0372,1.0947.9592,1.2219,1.0927,1.1565,1.2138,1.696,3.5742,1.022,5.1295-.1575.3633-1.0774,1.8756-1.4739,1.4811-.1897-.1884-.1089-.4533-.1812-.7127-.1111-.4001-1.3711-2.4039-1.6858-2.8103-1.7803-2.2997-4.7886-1.9336-6.8938-3.3601-.7031-.476-1.3564-1.8978-1.2397-2.7392.0542-.3915.8176-.3718,1.1541-.6402.1816-.145.5217-.4889.6294-.6498.4119-.6141-.4099-1.3795-.8208-1.4711-.2778-.062-.8691.1481-1.0903.3269-.3352.2706-.7224,1.2399-.7607,1.5461-.1196.9531-.2458,2.0645.0955,2.9682.6619,1.7523,1.4783,1.7152,2.9385,2.4445.666.3328-.1226.7974-.3743,1.2199-.3894.6538-.4565,1.5646-.3311,2.3054.1011.5978.5679.8212.6128,1.3731-.4558-.2922-.6531-1.0523-1.3237-.9962-.5527.0464-1.355.8208-1.6792,1.2617-.1792.2435-.6277,1.2084-.6897,1.4888-.4307,1.9476.5288,4.4933.23,6.5098-.0425.2847-1.0479,2.2652-.0767,1.9748ZM64.8396,44.4037c.1179-.0206.4771.2017.6167.2794.7869.439,2.1394,2.5373,2.6277,3.3964.2207.3885.509.8765.5347,1.3232-.343-.2557-.6768-.5775-.9641-.8937-.8804-.9694-1.271-2.1418-2.0559-3.0709-.2639-.312-.6084-.4379-.8252-.7134-.1326-.1686-.0959-.2927.0662-.321ZM97.6045,74.6036c.05-.1647.3167-.2798.3669-.2091.0166.0236.0327.1921.1233.3224.6106.8765,1.1704,1.7994,1.9924,2.4974.353.2997.8748.4472,1.0898.8964-.6646.0804-1.4077-.3221-1.9644-.6628-.8835-.541-1.9507-1.7195-1.6082-2.8443ZM131.4875,77.3385c-.5039.1343-1.0552-.4474-1.3435-.8276-.7637-1.0061-.127-2.0124-.1262-3.1415.4246.2618.3083,1.0496.3931,1.4648.1611.7888.3928,1.47.9246,2.0892.0405.0474.6143.2921.1521.415ZM160.9155,62.3439c-.824.9556-2.3213,1.4607-2.4636,1.1949-.0688-.129.3452-.2542.7029-.4813.5598-.3555.9363-.9033,1.1689-1.2478.1328-.1965.6423-1.0381.9194-.6511.302.4221.0447.7537-.3276,1.1853ZM165.0725,25.4341c.1035-.2068.5996-.3614.7068-.2542.1165.1165-.2351,1.5516.0032,2.2394.1707.4925.677.9885.5093,1.6049-.2053-.0129-.3035-.2143-.3804-.3438-.1045-.1754-.3428-.5236-.4971-.7646-.3062-.4774-.5884-1.9877-.3418-2.4816ZM145.9992,27.3344c-.3066-.089-1.5811-1.2099-1.9912-1.7251-.3469-.4356-1.1365-1.8742-1.0444-1.9673.2075-.2094.6719.6003.7686.705.8547.9263,1.8594,1.4512,2.7566,2.2421.1196.1056.4941.4221.4482.5761-.0767.2557-.7195.2324-.9377.1692ZM152.8332,38.381c.9998-.063,2.0693.4876,2.5605.9637.1992.1931.5498.782.613.925.2559.5788.2554,2.3626-.1628,2.8515-.0745.0872-.4861.3394-.5754.2571-.0364-.0335.238-.7102.2598-.9572.1006-1.1438-.175-2.2833-1.0928-3.0153-.5342-.4261-1.2319-.4123-1.6023-1.0249ZM114.9587,64.676c.2527.014.5273.6973.5681.9458.0569.3482.1667,1.2159.1399,1.5364-.042.5011-.343.6552-.5168.1219-.0835-.2562-.0957-.5686-.1921-.833-.1147-.3133-.5813-.9705-.582-1.2186-.0007-.2094.4338-.561.583-.5526ZM84.3259,59.4807c3.4783,1.9152,7.2319,3.0807,10.8657,4.6858,1.9077.8428,3.9492,1.4794,6.0449,1.6447.9976.0786,2.3655-.6006,2.9473-1.4186.3584-.5038.5496-1.2786.9077-1.7838.9485-1.338,3.6257-1.9415,5.1858-1.7988l-1.3171.2843c-.6731.189-2.0742,1.1547-2.5281,1.7014-.5894.7095-1.4619,2.7897-1.3733,3.6945.1479,1.5098,1.7334,2.6741,1.9307,2.7976,2.8984,1.8156,4.9927,3.7775,7.5215,6.0649.6545.592,1.1121,1.6359,1.9885.7134.988-1.04,1.894-2.4474,2.8787-3.53,2.0879-2.2969,5.6074-4.4992,8.2117-6.2717,2.491-1.6953,5.6633-2.9594,8.4514-4.1098,3.9819-1.6431,8.0518-3.0756,12.0493-4.7418,1.4839-.6182,3.0562-1.2805,4.4229-2.1132l-1.0479.8743c-2.6826,1.8984-5.6838,3.2357-8.5906,4.7396-2.0725,1.072-4.2202,2.0894-6.2808,3.204-.2935.1586-1.6995.9041-1.7739,1.0457-.2815.536.4912,1.0367.7644,1.422.7822,1.1038.9895,1.9701,1.4165,3.1975.2625.7539.5518,1.0648.5806,1.9809.0161.507.0913,1.2886-.3857,1.606-.022-.2735.0308-.5671.0029-.8369-.0891-.8656-.7471-2.402-1.2249-3.1329-.2354-.3597-.8875-1.0949-1.2522-1.3108-1.3059-.7734-3.7373-.5876-5.1245-.0734-3.0527,1.1314-5.0981,3.2512-7.1431,5.6741-.7349.8704-.8713,1.522-2.0151,1.9581-.6296.2399-1.3979.2104-1.7688.7949-.1897.2988.2734.401.4551.5761.2966.2857.876,1.2435.6284,1.5967-.1238.1769-4.061.8312-4.0984,1.1064-.0129.0963-.0164.3802.0171.4289.1636.2406,2.8848.0999,3.5793.9709.8315,1.0435-.6292.8695-1.2905,1.0199-.5574.1271-1.0002.5333-1.5312.7132-.0215.1341.0044.2501.1243.3235.2253.1382,1.3879.135,1.7358.1867.2031.0303,2.4656.1024,2.3657,1.0815-.0081.0815-.1245.5374-.1455.5641-.0359.0453-.9448.348-1.0947.3797-.4048.0856-2.2517.1472-2.3438.4771-.2349.8419,1.2036.4783,1.4966.4817.7825.009,3.9741.4103,4.575.7503.2695.1525.7546.6293.9775.8804-1.3872-.0259-2.7817.0351-4.1699.0045-1.8623-.0413-3.752-.2071-5.6399-.1362-1.3938.0524-2.8252.3126-4.2222.3924-.8279.0474-1.6743-.0422-2.5029-.0045,0,0,1.3301-.821,1.7305-1.1525,4.2681-3.5327,4.0554-9.843-.3848-13.4577-1.2874-1.048-4.939-5.0861-7.7144-5.3594-1.1807-.1163-2.5313.6856-3.1167.2656-.3093-.2219.3503-1.0339-.7078-1.6655-.6155-.3675-4.7979-2.0134-6.0908-2.541-1.9583-.799-4.6433-2.3735-6.1099-3.3029-1.1235-.7119-3.801-2.5281-4.2144-3.2471,0,0,2.6399,1.3156,3.3479,1.7053ZM80.6633,28.0587c.3489-.5222,1.3215-1.2503,1.7998-1.7892.1411-.1591.9146-1.4447,1.1531-1.2175-.376,1.3359-.7947,2.5568-2.1316,3.187-.427.2012-1.314.5569-.8213-.1803ZM86.4089,9.8367c.2346-.4495.5581-.7942.6699-.8473.1829-.0871.3677-.0992.3828-.0861.062.0537-.5054,1.2856-.5789,1.5355-.1387.4726-.2595,1.5195-.4375,1.8473-.0208.0378-.5032.2266-.5212.2053-.1589-.1871.3062-2.3117.4849-2.6547Z"/><path d="M143.4062,46.8334c.3992-.0524,1.1624-.3883,1.4448-.6699.4167-.4153.6582-1.2095,1.0603-1.6953.3311-.3996.9812-.674,1.1401-.9107.2429-.3609.4644-1.4598.3735-1.8849-.063-.2931-.9692-1.791-1.1975-2.134-1.4207-2.137-3.312-4.7761-5.3247-6.3392-1.0232-.7947-2.5647-1.8629-3.8032-2.2206-2.0994-.6067-4.3484-.0326-6.4775-.444-.5264-.1019-.5461-.3473-.866-.5441-1.8652-1.1484-2.1821-1.6701-3.6448-3.1483-2.2778-2.301-5.1863-4.6313-8.3696-5.4731-1.3035-.3448-2.7056-.5424-4.032-.8389-1.7129-.3831-4.3281-1.5004-5.959-.6327-.4375.2327-.6882.9019-.686,1.3735.0017.3267.239.6028.1167,1.0054-.0549.1815-.3591.3408-.4753.5494-.2795.5021-.126.9255.0847,1.4186l1.1162,1.5747c-.3784-.3121-.8442-.2141-1.2751-.2625-10.438-1.1767-21.0051,6.3328-23.114,16.6346-.0559.2739-.0615,1.1234-.1802,1.2936-.0291.0417-.2473.0784-.3672.2077-.1594.1722-.7168.9105-.8215,1.1028-.2795.5125-.1721,1.212-.426,1.753-.2534.5397-.8086.6427-.9204,1.5147-.3201,2.5002.8672,5.0324,3.2434,5.9848.9263.3713,1.8889.4532,2.6443,1.0017.9229.67,2.5027,1.0289,3.3149,1.1978,3.9502.8214,8.6438,1.0125,12.3933.7208,1.4817-.1151,3.4678-1.0104,4.8713-.9044,1.0344.0779,2.2793.2304,3.3154.401,1.7561.2889,3.6567,1.1683,5.3999,1.0158.5854-.0511,1.3218-.2748,1.927-.3804.9512-.166,2.3806-.2145,3.1372-.9639.2874-.2848.2004-.5061.2522-.5825.0259-.0383.4253.124.5713.1342,1.5352.1067,2.8838-.1908,4.3574-.2673,3.5752-.1862,6.7432.1067,10.2249.8101.5413.1094,1.22.4066,1.7075.4714,1.4248.1885,3.0056-.1677,4.2478-.8674.6475-.3647,1.1108-.9567,1.7729-1.3031.5068-.4185-.3777-1.1366-.4348-1.5023-.0293-.1866.1123-.3455.0898-.4696-.0273-.1525-1.0911-1.8856-1.2656-2.0616-.5981-.603-2.1765-1.1137-3.0146-1.2151-.3113-.0377-.6782.0632-.9524-.0723l1.4785-1.9823c.6897-.6953,2.3779-.2714,3.322-.3951ZM84,52.4438c-.5271-.451-1.3296-1.2058-1.7197-2.1158-.3201-.7471-.1826-1.9518-.0542-2.3793.0403-.1335.4231-.5084.5469-.7347.1992-.3633.3467-.8685.4595-1.2714.2097-.0333.1238.1726.1277.3188.0513,1.9775.5852,3.4183,1.3435,5.194l.9001,1.7911c-.4443-.3106-1.1919-.4504-1.6038-.8027ZM119.6233,55.5441c-.0503.043-1.0938.108-1.3096.1633-.2246.0576-.46.2315-.7246.3008-2.3052.6042-4.457-.4907-6.7266-.5899l-1.7383-.3122c.7151-.4329,1.562-.6464,2.2974-1.0353.4482-.2372,1.2019-.9016,1.5413-1.0219,1.6133-.5716,3.1753.0054,4.6885.5797.7268.2759.8831.4033,1.4763.8307.1182.0851.3452.0571.4463.1939.1309.1769.2158.7476.0493.8908ZM143.07,53.8269c-.0024.0401-.4451.5953-.4932.6364-.3157.2707-1.4019.4073-1.6345.6165-.0457.0408-.0005.2-.1106.2202-.4854.0893-.7593-.015-1.1365-.0106-.1921.002-.3533.1244-.5134.1268-.4871.0073-1.8152-.4084-2.4429-.4945-1.699-.2333-3.6831-.4878-5.3767-.5201-.1543-.0027-.478.094-.4475-.1278.8538-.3115,1.7263-.6049,2.5627-.9623,1.3567-.58,1.6565-.951,3.2654-1.0929,1.761-.1554,3.4177.0079,5.0674.7084.3374.1434,1.2822.4909,1.2598.9001ZM141.5483,51.0098c.1069.084.3762.3231.261.4434-.0183.0193-.3428-.184-.4792-.2252-1.2561-.3802-2.1731-.2809-3.4258-.1552-.1902.019-.5537.0422-.7087-.0677.241-.0927.2197-.5006.2756-.5573.0281-.0283.5679-.1418.6819-.152.7539-.0666,2.8105.2549,3.3953.7141ZM137,46.5872c-.4895-.0347-1.3091-.2062-1.5989-.6443.4216-.1083,2.2068-.4338,2.4287-.6481.0542-.0524.0303-.4819-.1152-.5764-.1758-.1144-.4807-.0684-.6851-.0306-.5537.1024-2.0681.7319-2.4678.7032-.1289-.0093-1.1211-.9288-1.2761-1.1148-.1077-.1292-.2454-.1647-.1917-.3842l6.0161-.3922c.1907-.4742-.0037-.8199-.5596-.7576-1.7971.2009-3.584.2831-5.397.376-.2529.0129-.4966.1944-.7439.1185-.5417-.1663-1.95-2.4571-2.3899-3.0001-.4312-.3534-.7686-.1119-.585.4569.0806.249.4861,1.2483.5989,1.4515.1165.2098,1.1824,1.0741,1.0088,1.2336-.0544.05-1.2214-.0193-1.4778-.0037-.5269.0322-1.2795.0746-1.7856.1378-.3948.049-.5564.1482-.4426.5602.0828.2995,1.1545.2272,1.469.2089.6396-.0369,1.2715-.096,1.9209-.1298.2998-.0156.5488-.2121.8733-.1146.2124.0637,1.2532,1.3506,1.3596,1.5917.0991.2247-.3738.2957-.5349.3491-.4001.1332-2.699.6255-2.781.7437-.1709.2469-.0005.8183.4121.7277l3.4915-.9504c.2917.1252.5291.4295.7834.5775.4998.2909,1.2595.6642,1.792.8996.2429.1072.9084.2399.9448.2733.0925.0842-.0845.2521-.1265.3215-.2817.461-1.1343,1.8137-1.4712,2.118-.3721.3359-2.1228,1.27-2.6719,1.5575-1.6179.8468-4.751,1.6719-6.5879,1.9999-1.1797.2109-2.2637.1078-3.4385.1506-.4243.0156-.7319.1824-1.2698.1232-.9944-.1092-1.3562-.9372-2.0586-1.5294-.6238-.5258-2.2847-1.5375-3.0767-1.5375-.3428,0-2.2856.0818-2.3713,0-.0488-.0469.3979-1.0602.4541-1.2764.5786-2.2344-.21-4.5019.0671-6.7255.2683-2.1529,1.5823-3.7353.5288-6.0569-1.7168-3.7842-4.7864-5.1238-8.801-5.298-3.3728-.1466-10.4736,1.8674-12.8804,4.303-.0918.0929-.6875.7773-.7122.826-.071.1412-.1072.7157-.0618.7705.0637.077,1.5012-.9365,1.7053-1.0496,4.5229-2.5092,13.4951-4.7853,17.8416-1.1295,1.3315,1.1196,1.8325,2.3062,1.7339,4.0413-.0632,1.1189-.5596,2.1044-.6479,3.0688-.2036,2.2247.814,4.6086.2007,6.7371-.8899,3.0889-3.4026,3.9775-6.2197,4.803-1.729.5065-3.395.8092-5.186.9667-1.8245.1604-3.5681.3672-5.3945.2528-.2195-.0138-5.9717.1246-8.7129-2.1823-3.958-3.3311-3.998-10.3377-2.0503-14.7391,3.5686-8.0626,13.4055-14.0085,22.2715-12.1442.2556.0537.6836.1445.9023.2515.377.184.9705,1.15,1.3049,1.5147.8098.8828,1.5901,1.7233,2.3743,2.6243,3.7295,4.2844,8.8252,4.2513,13.8384,5.9006.4111-.0249,2.7021.819,2.8252.6992.1143-.1115-.0645-.392-.1899-.5145-.6948-.6783-2.1226-.9948-3.0146-1.3432-.8818-.3443-1.731-.8359-2.6914-.9621-.0298-.2234.293-.1237.448-.1276.5979-.014,1.437.0476,2.0215.1581.7788.147,1.5215.6257,2.3372.4825.4802-.084.7913-.5838.6882-1.0638-.0112-.0515-.4495-.886-.4883-.9325-1.1707-1.4057-2.4836-2.8225-3.7253-4.2192-1.5361-1.7281-2.9248-2.2786-4.9187-3.5654-1.9148-1.2354-6.4573-3.2573-8.9844-3.5521-.866-.101-2.0417.0764-2.1187.0037-.0378-.0358.2417-.8906.3323-.9033.833-.1155,2.4326.1142,3.2891.2943.9019.1898,1.8179.5408,2.7048.771,1.0259.2662,2.0103.3871,3.0325.6694,2.1963.6064,4.6475,2.5461,6.2756,4.1066,1.3936,1.3355,2.4932,2.7288,4.1133,3.8334,1.3665.9318,1.7751.8035,3.3801.8484,2.6812.075,5.675.277,7.8945,2.1044,1.8484,1.5217,5.4243,5.3662,6.3027,7.5392.1304.3221.3545.6971-.1089.8382-.7302.2222-.739-.2691-1.0693-.43-.1772-.0865-.4202-.0269-.4963-.0784-.0457-.031-.0857-.3663-.2097-.4963-.4683-.4914-.5496.1103-.3481.6051.157.3853.8845,1.239,1.1812,1.6379.0845.1132.3613.3008.3657.3819.0103.188-.9778,1.2977-1.198,1.4762-.5134.4166-1.9109,1.0754-2.54.8738-.134-.043-.1958-.2181-.3796-.2091-1.3218.0646-2.8823.8464-4.2615.7492ZM109.4489,23.7758c.8691-.1113,2.8633.1614,3.7969.4077,1.5959.4211,3.8066,1.4797,5.2178,2.3146.6863.4062,1.3687.782,2.0264,1.2228.521.3493,1.1174.5974,1.6252.9381,1.5032,1.0093,2.5427,2.7208,3.9255,3.8932.4038.3423,1.3618.8217,1.6389,1.1162.0242.0261.3125.5886.2869.6103-.0371.0312-.8125.0204-.9653.0045-.7603-.0793-1.635-.5552-2.4402-.6361-1.0254-.1033-2.167.0688-3.1997-.0045-1.3186-.0938-4.3376-1.3462-5.532-2.0308-1.7356-.995-2.833-2.7281-4.2026-4.1286-.6987-.7147-2.314-1.8996-2.572-2.8105-.1536-.5405-.1841-.823.3943-.8969Z"/><path d="M170.0693,82.6011c-1.5835-.1791-4.7256-.3522-6.2178.0549-.9104.2485-1.8127.7535-2.7805.9365-.863.1633-1.9507.0573-2.7617.3147-.3777.1201-.5256.4159-.8579.5518-.9185.3763-2.3738.8793-3.3345,1.152-3.0798.8746-5.3315-.6251-8.2034-1.4139-.9614-.264-1.6035-.1967-2.4744-.3455-.7827-.1334-2.5435-.7845-3.426-1.0602-.6892-.2155-1.8718-.828-2.3933-.939-2.0732-.4418-4.6841.4835-6.7773.7368-1.5059.1821-3.7471.3366-5.2532.2703-.3259-.0145-1.6995-.2775-1.8533-.1339-.0183.0172-.0095.3339.0193.4296.7952,1.0018,1.6294,1.9564,2.6084,2.7747.5383.4499.5984.4497,1.2146.5714.2188.0433.5308.1912.7122.1912.8049-.0005,1.426-1.7906,2.0496-1.7916.2727-.0002.4707.3249.4509.5739-.0295.365-.6016.9524-.5139,1.2802.0723.2712.8262.2442,1.0625.176.1921-.0555,1.0857-.8072,1.3059-1.0011.3547-.3124.8076-.9309,1.1484-1.1586.1174-.0786.3684-.2091.4529-.1232.0808.082-.4058,1.6298-.1934,2.0527.2256.4499,1.708.3242,2.0808-.0378.1887-.1833,1.0774-1.8803,1.4456-1.5024.0784.0804,0,1.9159,0,2.2428,0,.3367.5405.4703.8335.4586,1.0645-.0431,1.7744-1.6556,2.6304-1.9937.158-.0625.7114-.1205.7659-.0666.2451.2422-.6248,1.5326-.6467,1.7315-.0676.6189,1.1929.8094,1.6802.6463.5159-.1726.8325-.7727,1.2104-1.096,1.843-1.5775,1.1335,1.444,1.4812,1.7866.0295.0292.3464.0258.4395.007.511-.1035,2.2515-1.7195,2.436-1.6658.3967.116.0525,1.5159.2561,1.9234.1816.3634.8906.4848,1.2788.515,1.1152.0859.9658-.3106,1.6033-.9676.1494-.1541.3606-.2227.5198-.3774.2388-.2315.2727-.7306.8286-.58.2144.058.1555.1826.085.3385-.3394.7474-.6072,1.021-.1809,1.8139.0432.0804.0032.2155.0471.2673.1548.1835.8301.1588.948.1538.3303-.0138.4321-.1694.6426-.3926l1.7227-2.1225c.1021-.0732.4861-.0886.5173-.0589.0742.0711-.521,1.6846-.5044,1.9943.0713.2091-.115,1.0414-.0823,1.0847.0959.126,1.4988.5401,1.6548.497.5022-.1384,1.7319-1.9897,1.9458-2.5495.052-.1516.4089-.1683.447-.1294.1387.1428-.4043,2.9204-.2422,3.3819.4004.3253,1.0815.5947,1.5708.3167.2449-.1391,1.1396-.8541,1.3667-1.0684.3794-.3579.9053-1.0629,1.1772-1.514.0833-.1384.0762-.3505.1653-.4753.3267-.4565.9065-.121.918.3183.0076.2825-.8081,1.8406-.9541,2.3365-.074.2513-.282,1.0383-.292,1.2537-.0364.782.9319,1.1529,1.1079,1.2061.0898.0272.4019.034.4307.005.0476-.0485.2734-.8967.3669-1.1074.2427-.5466.6104-1.2573.9412-1.7507.1035-.155.8271-1.174,1.0061-.98.0542.0587.0215,1.3878-.0056,1.5958-.0742.5666-.5718,1.3257-.6348,1.8049-.0173.1291.092,1.1633.136,1.2048.0298.0278.6904.157.8049.123.3582-.1064.7385-1.3439,1.3005-1.3572.019-.0004.3047.0831.3159.0954.054.0582.0273,1.3792,0,1.5897-.0439.3351-.4385,1.0364-.373,1.2752.0994.3618,1.7136.4092,1.7896.3333.0203-.0206.0127-.461.0051-.5829-.2166-3.552-.1631-7.1946-.2659-10.7562-.0142-.481.1196-3.1565.0042-3.2725-.0332-.0335-.5459.0229-.7095.0043Z"/><path d="M67.5354,93.8698c-.3054-1.0693-1.6389-2.0684-1.6074-3.3264.3096.3002.7175.5435,1.0283.8298.6416.5906,1.9253,2.5219,2.8655,2.2319.241-.0745.4346-.8436.4583-1.0854.0425-.4345-.2576-1.2963-.4434-1.7197-.2312-.5261-.6936-.9474-.7041-1.5383.8113.585,1.3481,1.5699,1.9919,2.3006.0903.1026.23.1296.311.2079.1013.0981.1125.2544.2146.3181.3201.1996,1.6462.3707,1.9382.0902.0845-.0811.4104-.6769.4104-.8.0007-.5534-.8423-1.5217-.6362-2.2451l2.1343,1.9048c.2642.1201,1.8276.157,1.967.0179.0566-.0565-.0168-.8432-.0579-1.0322-.1899-.8724-.9541-1.5573-1.0955-2.4286.9429.8133,2.0183,1.5503,2.7463,2.5724.1196.0952.8706.3022.9585.2368.0264-.0197.0229-.1627.0813-.2347.3386-.4189.4153-.6384.3147-1.2288-.083-.4893-1.0251-1.2535-1.2146-1.7328-.0623-.1581-.1218-.7046-.0664-.7659.1145-.1276.3679.1855.448.256.8875.7795,2.0667,2.3522,3.019,2.8771.5593.3081,1.6184.3129,1.5288-.4993-.1304-1.1828-.7351-1.6991-1.2598-2.5894-.1064-.181-.5146-1.0947-.0833-1.0691.0725.0046.7605.899.9578,1.0917.2451.2395.5625.4108.8398.6984.3892.4037,1.3188,1.8582,1.7913,1.9286.1763.0263.8171-.0464.8396-.2077.1384-.9893-.1538-1.7016-.7131-2.485l-.5745-1.9241c1.105.6094,2.0137,2.6975,3.0718,3.144.3716.1568.4622.2198.7715.382.2561.1342.6104.039.8987.0621l-.6401-2.8191c.0776-.0936,1.8611,1.2902,1.9873,1.4086.2278.2141.3787.5773.5786.7032.2893.1826,1.387.5754,1.5212.1174.1052-.3597-.1567-1.3042-.2424-1.7161.22-.0541.2556.0838.385.1914.2761.2304.4888.5414.7771.7607.2329.1774,1.2498.7617,1.4424.6978.1028-.0339.5496-.0659.5999-.1124.0354-.0323.0198-.8124-.0024-.9587-.0364-.241-.2129-.4034-.2512-.6456-.0806-.5095-.0906-.9409.4509-.5793.7271.4855,1.6323,2.2158,2.6672,1.9098.3684-.109.6895-1.2712.8535-1.6486.6829.4307,1.4182,1.8024,2.3582,1.5262.4292-.1262-.0193-1.1327.4092-1.2578.7832-.2286.9189.8561,1.4641.5679,1.0369-1.033,2.5896-1.4182,3.2273-2.7983.0559-.121.283-.6792.231-.7292-.1714-.1661-1.0498.4653-1.3149.5516-3.4548,1.1234-8.7646.4078-12.3042-.3271-3.1423-.6526-6.4043-1.7736-9.6409-1.118-4.615-.2803-8.0449,2.9417-12.3372,3.9412-3.4939.8133-6.677-.1568-10.0891-.6221-.4678-.0637-.8313-.2818-1.3533-.1169l.2544,12.1735h3.0764c.0217-1.074-.4312-2.3246-.8337-3.3318-.1685-.4223-.5745-.7268-.429-1.1985.0256-.0831.2708-.3384.3013-.3389.1763-.0023,2.0264,2.2346,2.3699,2.4997.1631.0825,1.3621.1128,1.4119.063.0498-.0503-.0066-.8495-.0588-1.0317Z"/><path d="M155.8164,96.468c-3.9304-1.6064-9.5791-2.3979-13.8215-2.9695-18.9905-2.5583-38.7341-2.8565-57.6418.7932-3.1296.6042-6.5247,1.3755-9.4519,2.5967-.1018.0425-.7383.246-.5134.4476.0835.075,1.9294.0163,2.2468.0041,1.4216-.0551,3.0676.0231,4.4741-.1403,1.3542-.1574,3.0881-.7338,4.5076-1.004,12.282-2.3386,25.4521-3.255,37.9319-2.5804,8.208.4438,17.0425,1.1633,25.0842,2.987.4644.1052,1.9277.6056,2.2141.6056h5.7041c.1042-.476-.3982-.6028-.7341-.7399Z"/><path d="M144.7248,96.9238c-.271-.094-.6506-.1717-.9377-.2191-4.9158-.8079-10.5625-1.4227-15.4961-1.5444-1.5962-.0392-3.1667-.2662-4.7507-.3835-7.0181-.5201-22.0332.5863-22.4351.6294-3.5769.3828-7.3142.7723-10.8542,1.4507-.2444.0467-.4949.1038-.738.1597-.1489.0342-.4185.0038-.3848.1912h55.7581c.0261-.2508.0364-.2155-.1614-.2841Z"/><path d="M164.3113,77.0803c-1.4736-.0843-3.3967.4044-4.8149.8366-1.4817.4515-2.3933,1.0829-4.0393.9676-1.4983-.1049-3.0225-.4619-4.5867-.2365l-7.5627,3.076c-.4541.3314-.228.543.2302.6191.7542.1252,2.6541.2983,3.2659-.0714.105-.0635.6873-.6731.7737-.5716.1118.1314-.3103.9463-.2437,1.1962.1221.4599,1.0867.5374,1.4905.3697.3914-.1622,1.6597-1.301,1.8945-1.308.5278-.0161-.2102,1.6674-.1748,1.8411.0271.1339.2834.3446.4302.343.6028-.0075,1.4441-1.5237,1.9873-1.8013v2.0507c0,.0562.865.0276,1.0959-.1219.3545-.2297,1.2722-1.3439,1.5964-1.7362.3271-.396.7307-.8654.8972-1.3457.21-.0333.1243.1726.1279.319.0081.3217-.032,1.2351.1492,1.4521.0544.0648.3677.1672.4912.0945.2244-.1321.2405-.447.3831-.6502.1929-.2755,1.3223-1.7781,1.4766-1.8561.2581-.13.175.2043.186.3244.021.2268.2124,1.5338.262,1.5981.0339.0439.292-.029.3918-.0566.9521-.2632,1.6099-1.7657,2.3643-2.3787.1387.2741.032.6459.0693.956.063.5251.2754.5623.7712.3967.2493-.0834,1.3872-.8355,1.6536-1.0374.2556-.1935.4644-.488.7104-.6998.156.2623-.0015.647.0837.9409.123.4236.7864.4103,1.1306.2734.3838-.1522,1.2979-1.1815,1.6045-1.178.728.0079.2742,1.1264.5718,1.3146.0842.0532,1.355.3294,1.4792.3235.1167-.0056.3208-.1307.3208-.2007v-2.371c-.4666.0789-.6729-.3226-.9778-.4962-.718-.4084-4.5518-1.1223-5.4893-1.176Z"/><path d="M61.4353,83.1797c.3611.1407,1.8274.5066,2.0569.314.0632-.0533-.551-.9751-.3643-1.5813.0256-.084.2673-.3387.3-.3396.0886-.0023.5535,1.0253.6089,1.1946.1116.3409-.1213.729.4741.9252,1.4395.4744,1.3994-.7886,1.4163-1.8013.0022-.1115-.0613-.4418.1917-.319.3503.1703.386.785.5515,1.1151.1213.2424.489.8004.6663.9999.1675.1887,1.1455.8972,1.3481.9592.396.1216.0703-.645.0586-.8278-.0139-.22-.0449-1.4225.0044-1.4778.0718-.0806.6851.379.7629.4542.2368.2286.4109.5614.7104.8276.416.3695,1.2039,1.0349,1.5825.3l.1487-1.9664c.8245.3246,1.3232,1.7238,2.249,1.7988,1.0754.0868.1292-1.4762.3145-1.6703.1477-.1549,1.6953,1.1364,2.4873.8833.1782-.0568,1.6975-.7308.3896-1.0049-1.2998-.2725-1.8477-1.0511-3.0061-1.48-1.0862-.4023-2.3955-.4282-3.5315-.57-.7632-.0954-2.0508-.485-2.7827-.8065-.395-.1735-.7612-.5997-1.209-.7136-.6797-.1731-1.5823-.1404-2.2742-.0176-1.0676.1896-2.1775.7322-3.2705.8958l.0081,3.7606.1084.1479Z"/><path d="M138.6633,35.0544c-1.3464-1.5219-3.3264-.2229-4.9741-.1155-.2737.0938-.281.3951-.0051.4796.3474.1067,1.1494-.1654,1.2026-.113.042.041.2256.8418.3621,1.1123.6895,1.3674,2.1753,1.6352,3.52,1.0367.1255-.0557.2668-.2256.2852-.2263.1462-.0052.3813.7415.5156.8932.1182.1339.3188.1768.45.319.1677.1816.2607.4932.5073.6465.1704.106.3506.0016.385-.1323.1035-.4023-1.2024-1.9218-1.4636-2.3783-.2683-.4689-.3931-1.0795-.7849-1.5219ZM136.6191,37.2258c-.5337-.2571-1.5283-1.3287-1.1584-1.9258.0796-.1282.3904-.179.4529-.123.0195.0177-.1333.2145-.1064.4146.0461.3416.301,1.0915.5251,1.3468.0684.0775.4126.0977.2869.2875ZM137.58,37.3547c.0383-.2123.4167-.2386.6028-.3582.8828-.5675-.4312-.4755-.5466-.6591-.0999-.1586-.0159-.4585-.0686-.5079-.1443-.1362-.6921.0849-.5-.7814.9119.3206,1.2971,1.3072,1.9211,1.987l-1.4087.3195Z"/><path d="M143.1306,44.2551c.0454-.0077.3259-.1014.3389-.1137.1465-.1384-.1245-.8206-.4309-.7578-.3674.0753-.5632.9803.092.8715Z"/><path d="M141.9328,43.3036c.0657-.306-.6221-.5761-.7588-.432-.0151.0159-.1262.3858-.1187.425.0884.4366.7922.4073.8774.007Z"/><path d="M142.7068,44.8534c-.0847-.3044-.8245-.2651-.7578.1105.0044.025.1106.319.1228.3317.1123.1171.7583.0032.635-.4422Z"/><path d="M174.2839,0H58.0832v101.1254h116.2007V0ZM172.7995,99.6447H59.5674V1.4807h113.2322v98.1639Z"/><path d="M51.9904,133.4557l-.5015-.282c-.188-.0941-.282.0314-.376.188-.439.721-2.1941,2.9777-2.5706,3.2912-.8147.6896-2.1941,1.0345-2.7268,1.097-.6582.0629-2.2256.0941-2.7583.0941-.7837,0-1.6929-.0941-2.3198-.2195-.9714-.188-1.7551-.8148-1.7866-2.4448,0-.627-.0625-3.6675-.0625-5.3601v-1.9432c.5015,0,2.6643,0,4.1375.1566.8149.0941,1.1599.5641,1.3479,1.2225.094.3446.282,1.0656.345,1.4731.031.2194.094.3135.2505.282l.6897-.0941c.1255-.0311.188-.094.188-.2506-.0625-.6584-.188-2.163-.188-3.26,0-.4701,0-3.0403.094-3.5732.0315-.1254-.0312-.2509-.1882-.2509l-.7834-.0312c-.1255,0-.2195.0626-.2195.2195-.0315.5955-.1567,1.2222-.2505,1.5357-.2825.9719-.5332,1.2225-1.4421,1.3794-.376.0626-3.73.188-3.9807.188v-9.1843l5.5793.1254c.8464.0314,1.7239.4075,2.3821.8464.7524.4701,3.072,3.4478,3.1348,3.5732.0312.0626.1565.1566.2505.0941l.4702-.2507c.1255-.0629.1255-.1569.0942-.2823-.0942-.3135-1.4731-4.6077-1.5986-5.0464-.0315-.094-.094-.1569-.251-.1569-.1565,0-.752.0629-1.2537.0629-3.103,0-6.2063.0311-9.3093.0311h-1.3794c-2.0686,0-3.1658-.094-3.8552-.094-.157,0-.2195.0629-.2195.1569v.8462c0,.188.094.2194.2505.2194h1.1284c1.1602,0,1.4736.2195,1.5986,1.2225.0315.3135.0942,4.2316.0942,6.8333v10.5005c0,1.1597-.1252,1.3791-1.5674,1.3791h-1.2539c-.2192,0-.313.0314-.313.1569v.8461c0,.1569.0938.2195.282.2195.282,0,.6895-.0314,1.3477-.0626.627,0,1.5046-.0314,2.6643-.0314,4.8899,0,7.9304.0314,9.811.0314,1.8806.0312,2.5703.0626,2.7271.0626.376,0,.5957-.188.6895-.4701l1.6614-4.6077c.094-.2509.094-.3449-.0627-.4389Z"/><path d="M56.2739,138.9724c.282,0,1.3792-.0941,4.0432-.0941,2.6016,0,3.4482.0941,3.793.0941.2507,0,.2822-.0941.2822-.2195v-.7836c0-.1254-.0315-.2195-.2197-.2195h-1.5669c-1.0032,0-1.2854-.5015-1.4421-2.2881-.094-1.097-.0625-7.7108-.0625-8.0869,0-.3763.0625-8.3064.188-8.7453.4387.376,3.2913,7.3973,3.8867,8.8393.1565.3761,4.1687,10.281,4.2627,10.5005.1255.3135.2825.5641.4705.5641.2505,0,.5015-.4701.6267-.7521.1255-.282,3.605-8.2752,3.793-8.6512.1565-.3135,4.6077-10.187,4.9211-10.5945h.0625c.0942.282.0942,5.8614.0942,7.9303v2.0061c0,2.3196-.0315,7.7734-.0627,8.1495-.0627.9404-.345,1.1285-.8777,1.1285h-2.1313c-.2195,0-.251.0629-.251.2195v.721c0,.188.0315.282.251.282.4075,0,1.6296-.0941,4.5137-.0941,3.4478,0,4.0122.0941,4.3882.0941.2505,0,.282-.0941.282-.282v-.721c0-.1254-.0315-.2195-.2195-.2195h-1.8491c-.7837,0-1.0659-.5015-1.0659-1.6926,0-.627-.094-5.7048-.094-7.2719v-2.1944c0-2.1001.094-6.5823.094-7.4914,0-.7209.094-1.2851,1.0344-1.2851h1.3792c.2195,0,.251-.094.251-.282v-.7209c0-.1255-.0315-.2195-.188-.2195-.345,0-1.4106.094-5.5796.094-.3135,0-.6582.0314-.7212.3763-.0938.6267-3.5103,7.9929-3.7297,8.4316-.2507.4075-3.3855,7.8991-3.824,8.3692l-6.9587-16.7382c-.1567-.4075-.3447-.533-.8152-.533-.376,0-1.1909.094-2.6641.094-2.6646,0-3.5107-.094-3.8242-.094-.188,0-.2195.094-.2195.188v.815c0,.1254.0315.2194.2195.2194h1.9121c1.2852,0,1.2537.439,1.2852,1.1597.0313.9091.0313,5.6422.0313,6.0811,0,.5641-.0938,8.5884-.4702,10.814-.188,1.0656-.4702,1.8806-1.6611,1.8806h-1.6611c-.157,0-.188.0941-.188.188v.7524c0,.2506.031.282.282.282Z"/><path d="M109.0974,133.1422c0-3.3226-2.0374-5.2032-5.0781-6.2063l-.0938-.0626c2.4448-1.2854,3.824-2.069,3.824-5.1721,0-1.8492-.627-3.2911-2.4136-4.2628-1.0969-.627-3.1033-.8464-5.5479-.8464-1.0974,0-2.978.094-3.981.094-2.2568,0-3.6672-.094-4.1687-.094-.1882,0-.251.0629-.251.2195v.7836c0,.1569.0627.2194.251.2194h.9714c1.4421,0,1.9436.0626,2.0376,1.8807.031.5644.094,4.3885.094,5.5482v3.6987c0,2.5702-.063,6.7078-.1567,7.4288-.1252,1.0031-.2822,1.3791-1.2539,1.3791h-1.5044c-.2195,0-.2822.0629-.2822.2195v.815c0,.1254.0627.188.4387.188.5955,0,2.4451-.0941,4.0122-.0941,1.3167,0,2.5391.0941,4.7017.0941,2.884,0,4.6707-.3135,5.9871-1.1285,1.4419-.9091,2.4136-3.1031,2.4136-4.7017ZM97.4997,124.1462c0-2.6016.0313-5.3287.0627-5.9556,0-.282.188-.5015.4387-.5641.251-.0629.5955-.0314,1.0344-.0314,1.5986,0,3.166.282,4.2942,1.0659,1.1599.8462,1.5361,2.1001,1.5361,3.2912,0,1.3791-.4702,2.7897-1.7556,3.7613-.7522.5329-2.1626.815-3.9492.815-.533,0-1.0659,0-1.6614-.0626v-2.3196ZM100.7912,137.9694c-2.6018,0-3.2915-1.2851-3.2915-4.1688v-6.2692h1.0029c1.4419,0,2.915.0314,4.2002.533,1.8496.721,3.1345,2.3821,3.1345,4.9212,0,3.7301-2.4136,4.9838-5.0461,4.9838Z"/><path d="M128.4079,138.9098c1.8809.0312,2.5703.0626,2.7271.0626.3762,0,.5957-.188.6897-.4701l1.6611-4.6077c.094-.2509.094-.3449-.0625-.4389l-.5017-.282c-.188-.0941-.282.0314-.376.188-.439.721-2.1941,2.9777-2.5703,3.2912-.8152.6896-2.1943,1.0345-2.7271,1.097-.6582.0629-2.2253.0941-2.7583.0941-.7837,0-1.6926-.0941-2.3196-.2195-.9717-.188-1.7551-.8148-1.7866-2.4448,0-.627-.0627-3.6675-.0627-5.3601v-1.9432c.5017,0,2.6643,0,4.1375.1566.8149.0941,1.1599.5641,1.3479,1.2225.094.3446.2822,1.0656.3447,1.4731.0312.2194.0942.3135.251.282l.6895-.0941c.1255-.0311.188-.094.188-.2506-.0625-.6584-.188-2.163-.188-3.26,0-.4701,0-3.0403.094-3.5732.0315-.1254-.0315-.2509-.188-.2509l-.7837-.0312c-.1252,0-.2195.0626-.2195.2195-.0312.5955-.1565,1.2222-.2505,1.5357-.2822.9719-.533,1.2225-1.4419,1.3794-.3762.0626-3.7302.188-3.981.188v-9.1843l5.5793.1254c.8464.0314,1.7241.4075,2.3821.8464.7524.4701,3.0723,3.4478,3.1348,3.5732.0313.0626.1565.1566.251.0941l.47-.2507c.1255-.0629.1255-.1569.094-.2823-.094-.3135-1.4731-4.6077-1.5986-5.0464-.0312-.094-.094-.1569-.251-.1569-.1565,0-.752.0629-1.2534.0629-3.1033,0-6.2063.0311-9.3096.0311h-1.3794c-2.0686,0-3.1655-.094-3.8552-.094-.157,0-.2195.0629-.2195.1569v.8462c0,.188.094.2194.251.2194h1.1282c1.1599,0,1.4734.2195,1.5986,1.2225.0315.3135.094,4.2316.094,6.8333v10.5005c0,1.1597-.1252,1.3791-1.5671,1.3791h-1.2537c-.2195,0-.3135.0314-.3135.1569v.8461c0,.1569.094.2195.282.2195.282,0,.6897-.0314,1.3477-.0626.627,0,1.5046-.0314,2.6646-.0314,4.8896,0,7.9302.0314,9.8108.0314Z"/><path d="M152.8777,137.1858c.2822.4075.9717,1.4731,1.3164,1.7866.4705-.0314,1.6301-.0941,2.5391-.0941,1.3792,0,2.1941.0941,2.4451.0941.219,0,.2505-.0941.2505-.282v-.6896c0-.1254-.0315-.2509-.2505-.2509-.8779,0-1.5986-.0626-2.2571-.5327-.5955-.439-2.6016-3.2914-2.7583-3.6049-.2507-.4072-2.4763-3.6047-2.8525-4.0122-.2505-.3446-.6895-.9087-1.4419-1.191v-.0626c4.0122-.8776,5.7991-2.351,5.7991-6.2689,0-1.1599-.5955-2.5704-1.6299-3.5735-1.1912-1.1285-3.26-1.912-5.8616-1.912-.5642,0-3.4795.094-5.2349.094-2.6328,0-3.6045-.094-3.8867-.094-.1565,0-.188.0629-.188.2195v.7836c0,.1254.0315.2194.188.2194h1.2539c.7837,0,1.1597.533,1.1912,1.5672.0315.909.0315,2.9151.0315,5.2346v3.0406c0,2.9777,0,5.9242-.063,9.0273,0,.8462-.533,1.0656-1.2224,1.0656h-1.2852c-.1565,0-.1565.0941-.1565.2509v.721c0,.1566,0,.2506.2505.2506.345,0,1.0659-.0941,3.9182-.0941,2.9778,0,3.7615.0941,4.1062.0941.3135,0,.345-.0626.345-.282v-.6896c0-.1569-.0315-.2509-.251-.2509h-1.9746c-.4702,0-.7209-.5641-.7837-1.2225-.0315-.4701-.0627-3.9808-.0627-5.83v-1.7554c.439-.0941.7524-.0941,1.0344-.0941,1.8181,0,2.5701.8464,3.3853,1.8181.3762.439,1.8809,2.6956,2.0061,2.9151.1567.2506,1.8494,3.2286,2.1001,3.6047ZM145.7624,127.845c-.5957,0-.9404-.0314-1.4106-.1255v-8.8705c0-.5015.1567-.8464.3762-1.0031.282-.188.6897-.2509,1.0657-.2509,2.6016,0,3.9807.4703,5.2031,1.442.9092.7521,1.5676,2.1315,1.5676,3.5732,0,1.3165-1.0972,5.2347-6.802,5.2347Z"/><path d="M182.9577,132.4526l-.5015-.188c-.1255-.0626-.188,0-.2505.1255-.439,1.2222-2.3196,4.9838-4.1692,5.2658-.9714.1254-7.1777.0629-7.8674,0-.0942-1.2851-.0942-8.0558-.0942-8.5884v-2.6956c0-2.1942.0942-6.9272.0942-7.3348,0-.909.1252-1.2225,1.0972-1.2225h1.8806c.2507,0,.3135-.094.3135-.2509v-.7207c0-.1569-.0315-.2509-.282-.2509-.2825,0-1.5986.094-4.6392.094-2.6016,0-3.7302-.094-4.0752-.094-.188,0-.219.0629-.219.2195v.6895c0,.1569.031.3135.219.3135h1.4736c.9399,0,1.0969.3135,1.1597,1.1285.0312.5641.0937,3.8867.0937,5.8928v1.7552c0,1.912-.0937,9.7172-.0937,10.3127,0,.4075-.1882.8461-1.3479.8461h-1.5044c-.1882,0-.2195.0629-.2195.2195v.7836c0,.1569.0312.2195.2505.2195.2195,0,.5957-.0314,1.2227-.0626.6582,0,1.5671-.0314,2.7896-.0314,1.6926,0,4.7646,0,7.5542.0314,2.7898,0,5.2349.0312,5.6421.0626.1882-.8462,1.4419-6.0182,1.5359-6.2377.0315-.188.0315-.2195-.0627-.282Z"/><path d="M206.644,133.4557l-.5015-.282c-.188-.0941-.282.0314-.376.188-.439.721-2.1941,2.9777-2.5706,3.2912-.8147.6896-2.1941,1.0345-2.7268,1.097-.6584.0629-2.2256.0941-2.7585.0941-.7834,0-1.6924-.0941-2.3193-.2195-.9717-.188-1.7554-.8148-1.7866-2.4448,0-.627-.0627-3.6675-.0627-5.3601v-1.9432c.5015,0,2.6643,0,4.1375.1566.8149.0941,1.1599.5641,1.3479,1.2225.094.3446.282,1.0656.345,1.4731.031.2194.094.3135.2505.282l.6897-.0941c.1252-.0311.188-.094.188-.2506-.0627-.6584-.188-2.163-.188-3.26,0-.4701,0-3.0403.094-3.5732.0313-.1254-.0312-.2509-.188-.2509l-.7837-.0312c-.1255,0-.2195.0626-.2195.2195-.0315.5955-.1565,1.2222-.2507,1.5357-.2822.9719-.5327,1.2225-1.4419,1.3794-.376.0626-3.73.188-3.9807.188v-9.1843l5.5793.1254c.8464.0314,1.7241.4075,2.3821.8464.7524.4701,3.072,3.4478,3.1345,3.5732.0315.0626.1567.1566.2507.0941l.4705-.2507c.1255-.0629.1255-.1569.094-.2823-.094-.3135-1.4731-4.6077-1.5986-5.0464-.0315-.094-.094-.1569-.251-.1569-.1565,0-.7522.0629-1.2537.0629-3.103,0-6.2063.0311-9.3093.0311h-1.3794c-2.0686,0-3.1658-.094-3.8552-.094-.157,0-.2195.0629-.2195.1569v.8462c0,.188.094.2194.2505.2194h1.1287c1.1599,0,1.4734.2195,1.5986,1.2225.0312.3135.0937,4.2316.0937,6.8333v10.5005c0,1.1597-.125,1.3791-1.5669,1.3791h-1.2542c-.219,0-.3132.0314-.3132.1569v.8461c0,.1569.0942.2195.2822.2195.282,0,.6895-.0314,1.3477-.0626.627,0,1.5044-.0314,2.6646-.0314,4.8896,0,7.9302.0314,9.8108.0314,1.8806.0312,2.5701.0626,2.7271.0626.3762,0,.5955-.188.6897-.4701l1.6611-4.6077c.094-.2509.094-.3449-.0627-.4389Z"/><path d="M232.1164,116.592c-.2822,0-.9719.094-2.821.094-2.1001,0-3.3855-.094-3.699-.094-.188,0-.2192.0629-.2192.188v.7524c0,.188.0313.282.2192.282h.8464c1.3167,0,1.1597.6896,1.0344,1.2225-.1255.5641-4.5137,7.0839-5.6736,8.9019-.9402-1.7866-4.7957-8.5884-4.8899-9.09-.1252-.7524,0-1.0345.9407-1.0345h1.0342c.1882,0,.2195-.1254.2195-.282v-.7836c0-.094-.0312-.1569-.2195-.1569-.3135,0-1.4417.094-4.6704.094-1.9119,0-3.385-.094-3.6675-.094-.188,0-.2192.0629-.2192.188v.815c0,.1254.0312.2194.2192.2194h.7839c.5015,0,1.2222.2821,1.6296.7522.9089,1.0973,6.1125,9.9363,6.5198,10.7513v1.8181c0,2.9151-.0625,5.3913-.094,5.8302-.031.4701-.282.7836-1.0969.7836h-1.5359c-.1882,0-.2195.0941-.2195.2195v.7524c0,.1566.0625.2506.188.2506.345,0,1.3167-.0941,4.1377-.0941,2.6328,0,3.8552.0941,4.2317.0941.219,0,.219-.0941.219-.282v-.721c0-.1254,0-.2195-.219-.2195h-1.2224c-.8152,0-1.2856-.094-1.3794-1.097-.0313-.3447-.1252-2.3821-.1252-3.6047v-4.1061c1.1912-1.7241,6.8018-9.8424,7.4287-10.4379.5327-.5015,1.0657-.6896,1.5356-.6896h.7839c.2192,0,.2505-.094.2505-.282v-.7524c0-.1252-.0312-.188-.2505-.188Z"/><path d="M25.6286,118.0118c-1.7991-1.2311-3.4724-1.5785-7.0393-1.5785-1.0417,0-2.9043.0947-3.4724.0947-.7358,0-1.3579-.0057-1.8853-.0143,0,0-2.5183.0883-2.7859.1268-3.4563.4394-5.8508,1.1497-7.8213,2.9879-1.9536,1.8422-2.7642,3.942-2.605,5.8925.2188,2.6824,1.9749,4.0117,3.9607,3.8498,1.811-.1477,2.7217-1.4492,2.6279-2.5986-.0652-.8011-.7402-1.342-1.4749-1.3174-.627.0511-1.3506.6359-1.5867,1.1816-.1777.4-.5242.8839-1.0117.9236-.5574.0455-1.1685-.5708-1.3047-2.2426-.1167-1.4282.8711-3.5076,2.9951-4.9776,2.251-1.584,4.5996-2.4067,7.8652-2.6752h.3433c.8521,0,1.168.063,1.231.6945.0315.3157.0632,3.7565.0632,5.8399v3.6302c0,3.6619-.0947,8.5863-.1262,8.902-.0947.8524-.3159,1.0101-1.3892,1.0101h-1.3574c-.1577,0-.1895.0633-.1895.221v.7892c0,.1263.0317.221.2529.221.3469,0,1.5781-.0947,4.3562-.0947,2.967,0,3.9456.0947,4.3877.0947.2527,0,.2839-.0947.2839-.2524v-.7578c0-.1263-.0312-.221-.2524-.221h-2.02c-.6631,0-.979-.3157-1.042-1.0101-.0317-.4418-.063-4.735-.063-6.2186v-1.6416c1.0103.1263,2.2727.158,3.4409.158,5.019,0,8.0178-2.4623,8.0178-6.4399,0-1.7993-.9155-3.5669-2.3992-4.5771ZM23.924,125.8721c-.8206,1.1048-2.5254,2.1466-4.4509,2.1466-1.2312,0-2.2729-.0949-2.9041-.2843v-10.0699c.6311-.221,1.9255-.221,2.4622-.221,1.8625,0,5.7136,1.1049,5.7136,5.2401,0,1.1049-.1262,2.273-.8208,3.1885Z"/></g></g></svg>